<svg width="193" height="157" fill="none" xmlns="http://www.w3.org/2000/svg"><path d="M177.5 153v4h8v-4h-8zm-74.023-53.25l-3.66 1.614 3.66-1.615zm14.836-62.732l2.707 2.944-2.707-2.944zm57.778-14.207l-1.886 3.527 1.886-3.527zm10.757 26.185l-3.701-1.518 3.701 1.518zm-51.246 28.023l-.191-3.996.191 3.996zM7.787 2.946A4 4 0 10.589 6.438l7.198-3.492zM185.5 153c0-7.509-5.947-12.535-12.328-16.188-6.598-3.777-15.464-7.087-24.226-10.511-8.94-3.493-17.973-7.172-25.58-11.778-7.618-4.614-13.37-9.903-16.23-16.388l-7.32 3.229c3.809 8.635 11.145 14.999 19.406 20.002 8.273 5.009 17.913 8.909 26.812 12.387 9.077 3.546 17.216 6.597 23.163 10.002 6.164 3.529 8.303 6.504 8.303 9.245h8zm-78.364-54.865c-7.777-17.634-2.338-43.26 13.884-58.173l-5.414-5.89c-18.54 17.044-25.058 46.277-15.79 67.292l7.32-3.229zm13.884-58.173c16.007-14.715 36.555-22.516 53.185-13.624l3.772-7.055c-21.243-11.359-45.548-.675-62.371 14.79l5.414 5.89zm53.185-13.624c4.417 2.363 7.565 5.4 9.158 8.809 1.539 3.294 1.826 7.35-.216 12.331l7.402 3.035c2.8-6.83 2.643-13.227.061-18.753-2.529-5.412-7.181-9.561-12.633-12.477l-3.772 7.055zm8.942 21.14c-3.162 7.712-10.649 13.931-19.962 18.377-9.244 4.413-19.684 6.781-27.774 7.168l.382 7.99c9.131-.436 20.614-3.057 30.839-7.938 10.155-4.849 19.68-12.229 23.917-22.562l-7.402-3.035zm-47.736 25.545C83.026 75.528 28.963 46.606 7.787 2.946L.589 6.438c22.774 46.955 80.105 77.21 135.204 74.576l-.382-7.99z" fill="#fff"/></svg>