<svg xmlns="http://www.w3.org/2000/svg" viewBox="0 0 407.05 222.65"><g opacity=".4" fill="#43687a"><path opacity=".1" d="M84.46 61.98l-9.29-28.67L83.4 18.7l1.06 43.28z"/><path opacity=".2" d="M64.2 79.21l6.25-1.96-12.54-38.23 6.29 40.19z"/><path opacity=".3" d="M106.76 12.15L95.84 27.97l-12.03-9.36 22.95-6.46z"/><path opacity=".4" d="M169.82 1.31l-21.5 18.06-5.84-9.83 27.34-8.23z"/><path opacity=".1" d="M43.7 37.69L21.4 62.78l21.78-10.66.52-14.43z"/><path opacity=".2" d="M80.27 70.85l-59.01-8.07 58.15-10.22.86 18.29z"/><path opacity=".3" d="M57.74 39.51L56.11 65.5l43.62-9.56-41.99-16.43zm-31.1-24.39l17.33 3.58-34.06 2.99 16.73-6.57z"/><path opacity=".4" d="M50.34 81.5l-5.18 11.82-10.09 3.45L50.34 81.5zm13.94 11.42l4.39-4.34 7.36 7.79-11.75-3.45zm-9.76-65.26l12.75-8.76-9.56 19.52-3.19-10.76zm51.18 119.82l-23.76-27.74-8.37 33.85 32.13-6.11z"/><path opacity=".3" d="M117.65 150.98l-35.71-31.24 9.62 30.24 26.09 1zm-28.41 62.35l8.26-53.54 7.46 1.93-15.72 51.61zM36.4 26.67l47-7.97-8.23 14.61-38.77-6.64z"/><path opacity=".1" d="M117.12 4.9l9.91-3.89 1.77 9.2-11.68-5.31z"/><path opacity=".2" d="M56.16 65.41L29.13 90.8l14.24-38.64 12.79 13.25z"/><path opacity=".3" d="M79.41 52.56l-11.94-4.58 32.83-.18-20.89 4.76z"/><path opacity=".4" d="M81.27 159.7l2.13 20.18 8.76-10.09-10.89-10.09zm39.83 6.9l-15.4-19.12 6.11 25.76 9.29-6.64z"/><path opacity=".1" d="M58.86 94.99l-1.8 7.09-27.68-11.19 29.48 4.1z"/><path opacity=".3" d="M174.74 84.55l11.15 18.59-31.33-7.17 20.18-11.42z"/><path opacity=".4" d="M174.07 41.41l7.17 16.33 1.6-11.82-8.77-4.51z"/><path opacity=".2" d="M220.28 47.51l7.03-6.77-23.76 10.49 16.73-3.72z"/><path opacity=".1" d="M206.87 150.4l-1.07-24.42 30.27 31.33-29.2-6.91z"/><path opacity=".4" d="M215.89 105.8l-10.09 20.18 42.22-22.04-32.13 1.86z"/><path opacity=".3" d="M220.67 61.45l14.47-6.37-1.99 20.45-12.48-14.08z"/><path opacity=".2" d="M200.89 42.2l2.66 9.03-8.24 11.15 5.58-20.18z"/><path opacity=".1" d="M351.05 27.73l-110.2 8.23 17.26 6.38 92.94-14.61z"/><path opacity=".4" d="M321.57 95.17l-18.85 4.52-11.15-25.23 30 20.71z"/><path opacity=".2" d="M190.8 32.91l36.51 7.83-9.56-14.6-26.95 6.77z"/><path opacity=".1" d="M210.72 31.58l7.03-5.44 2.53 21.37-9.56-15.93z"/><path opacity=".2" d="M181.38 57.2l-15.35 9.28 10.72-.08 4.63-9.2z"/><path opacity=".3" d="M227.31 40.74l-44.21 5.31 6.24 9.3 37.97-14.61z"/><path opacity=".1" d="M258.11 42.34l-30.8-1.6 41.42 15.4-10.62-13.8z"/><path opacity=".2" d="M205.8 125.98l-19.91-22.84 6.9-15.4 13.01 38.24z"/><path opacity=".5" d="M189.43 75.22l3.61 12.36-6.92 15.46 3.31-27.82z"/><path opacity=".1" d="M311.22 118.28l13.8-8.63-3.45-14.34-10.35 22.97z"/><path opacity=".3" d="M345.23 170.94l26.92 17.57-3.92-15.26-23-2.31z"/><path opacity=".5" d="M307.83 121.26l8.37 16.93 5.77-3.98-14.14-12.95z"/><path opacity=".3" d="M241.12 35.96l46.46-5.84 21.25 9.03-67.71-3.19z"/><path opacity=".1" d="M189.21 55.48l-7.99 1.96 8.52-16.83-.53 14.87zm38.1-14.74l-16.59-9.16-9.83 10.62 26.42-1.46z"/><path opacity=".2" d="M220.28 55.74l4.51-4.38-9.29 1.06 4.78 3.32z"/><path opacity=".3" d="M275.11 101.02l7.43 14.34 9.03-41.16-16.46 26.82z"/><path opacity=".1" d="M212.04 90.79l3.39 14.94-16.53 3.38 13.14-18.32z"/></g><path d="M22.37 73.85l21.19-22.43-3.72 14.77zm20.43-21L24 72.7l15.5-6.8z" fill="#9dbbc9"/><path d="M30.25 82.82l-7.58-9.73 35.07-8.37zm-6.54-9.36L30.38 82l24.19-15.91z" fill="#9dbbc9"/><path d="M23.17 74.22l-2.25-11.6v-.06l9.1-17.34zm-1.83-11.54l1.87 9.65 5.73-24.12zm28.95 19.48l-7.47-30.68 14 13.91zm-6.75-29.4l6.84 28.08 6-15.35z" fill="#9dbbc9"/><path d="M20.58 63.4l23.34-26.26-.54 15.1zm22.9-25.17L22.22 62.16 43 52z" fill="#9dbbc9"/><path d="M40.09 67.48L29.17 46.74 36.58 25zM29.82 46.69l9.44 17.92-3-36.75zm12.68 5.76l15.41-13.7 9.79 8.75zm15.41-13.17l-14 12.5 23-4.52z" fill="#9dbbc9"/><path d="M80.35 71.09L40.74 51.23l43.87 10.48zM45.63 53l34.44 17.27 3.7-8.15z" fill="#9dbbc9"/><path d="M70.54 77.58l-15-12.31 24.24-13.14zM56.27 65.34l14.09 11.58L79.05 53zM66.8 47.82l8.37-15.28L84 39.66zm8.49-14.67l-7.55 13.79 15.48-7.37zM30 82.63l9.7-17 11.05 16zm9.73-16.21l-9 15.78L50 81.32zm4.16-28.07l-7.75-12 8-8.17zm-7.24-11.92L43.51 37l.25-17.83z" fill="#9dbbc9"/><path d="M43.24 52.67l-16.16-20 28.36-4.56zm-15-19.61l14.88 18.51 11.27-22.72z" fill="#9dbbc9"/><path d="M44.21 38L16 30.37l10.63-15.59zm-27.6-7.89l26.58 7.2-16.54-21.85z" fill="#9dbbc9"/><path d="M57.93 38.63l-14.56-.76 12.08-21zM44 37.51l13.45.7-2.26-20.08zm31.69-2.21l-8.75-16.38 3.81-9.65zm-8.1-16.42l6.79 12.7-3.83-20.17z" fill="#9dbbc9"/><path d="M84.18 18.69L59.32 14l11.36-3.86.08.05zm-23.3-4.82l21.33 4.05-11.58-7.36zM57.66 39l-3.37-11.42 13.49-9.27zm-2.91-11.25l3 10.12 9-18.37z" fill="#9dbbc9"/><path d="M67.65 49L55.4 16.63l12.66 2.91v.16zM56 17.19l11.28 29.74.38-27.07zM8.56 22l18.06-7.1h.06l18.66 3.86zm18.1-6.68l-15.39 6 31.33-2.7zM1.29 36.55L3 26.62l13.94 3.59zm2-9.44l-1.5 8.8 13.86-5.61z" fill="#9dbbc9"/><path d="M2.54 27.08l7.32-5.6H10l26.48 4.72v.39zM10 21.9l-6.26 4.76 30.57-.43zm44.68 6.16L43.5 18.57l12.44-1.89zm-10.25-9.23l9.93 8.44 1.13-10.12zm38.66 20.99L95.93 27.6l3.74 11.92zm12.66-11.49L84.1 39.41l15-.27zm-27.83-8.44l-.14-.37 34.42-16-8.26 9.23zm32.7-15.17L70.1 18.88l23.63-6.46z" fill="#9dbbc9"/><path d="M93.38 12.81l8.05-9 5.69 8.54zm8-8.36l-7.1 7.93 12.1-.42z" fill="#9dbbc9"/><path d="M92.52 12.84l24.91-8.63-10.6 8.14h-.07zm22.72-7.45l-20.09 7 11.54-.4z" fill="#9dbbc9"/><path d="M116.37 5l-14.97-.67v-.4L128.8.59zm-12.56-1l12.5.56 9-3.17z" fill="#9dbbc9"/><path d="M83.21 18.55l-.12-.08-13-8.23 32.11-6.47zm-12-8.11l12 7.62 17.41-13.57z" fill="#9dbbc9"/><path d="M74.27 34.19l8.5-15.5 12.08-6.9zM83.07 19L76.2 31.5l16.62-18.1z" fill="#9dbbc9"/><path d="M95.88 28.25l-12.5-9.73 23.85-6.71zm-11.64-9.56l11.56 9 10.48-15.19z" fill="#9dbbc9"/><path d="M95.67 28.24L93.6 12.3l23.1 8.31zm-1.6-15.35L96 27.7l19.52-7.08z" fill="#9dbbc9"/><path d="M108.56 32.6l-2.41-20.48 10.36 8.43zm-1.64-19.09l2 17.4 6.76-10.23z" fill="#9dbbc9"/><path d="M109.21 32.65L93.58 12.59l7.93-8.87zm-15.12-20l14.23 18.26-7-26.32zm20.54 28.99l-15.38-2.13-3.78-12.07zm-15.07-2.49L113.14 41 96.21 28.49z" fill="#9dbbc9"/><path d="M109.09 49.66l-9-1.7-1-9.21zm-8.61-2l7.52 1.39-8.32-9.14zM84.61 61.63L79 52.29l21.62 3.45zm-4.81-8.81l5 8.32 14.27-5.25z" fill="#9dbbc9"/><path d="M100 56.26l-17.16-16.7 17.66 8.11zM84.78 40.88l14.9 14.49.41-7.45z" fill="#9dbbc9"/><path d="M54.53 66.28l29.73-26.73-4.68 13.15h-.07zm28.83-25.39L57.3 64.33l22-11.91z" fill="#9dbbc9"/><path d="M79.4 52.77l-13-5 35.71-.19zm-10.87-4.6l10.9 4.18 19-4.35z" fill="#9dbbc9"/><path d="M84.92 62.73L66.73 47.07l17-7.76zM67.47 47.18l17 14.64-1.07-21.9z" fill="#9dbbc9"/><path d="M70.21 77.78l-3.34-31.39 13.74 24.38zM67.77 49.2l2.93 27.53 9.11-6.14z" fill="#9dbbc9"/><path d="M64 79.47l-6.29-40.42.39-.1 12.6 38.43zm-5.52-38.06L64.36 79l5.84-1.83z" fill="#9dbbc9"/><path d="M68.33 89.77l-4.39-10.69L70.71 77zm-3.86-10.44l3.72 9 2-10.83zm-30.15 17.9L51 80.61l-5.69 12.87zm15.41-14.84L35.82 96.3 45 93.16zm-20.41 9.13L22.61 72.2l7.92 10.16zm-5.54-17.17l5.36 15.45 1-7.32z" fill="#9dbbc9"/><path d="M35 97l-5-15.13 15.59 11.51zm-4.3-14l4.5 13.56 9.54-3.26z" fill="#9dbbc9"/><path d="M47.57 102.69l-13-6 10.73-3.63zm-12-5.9L47 102l-2-8.41z" fill="#9dbbc9"/><path d="M46.56 102.58l12.73-8.39-2 7.81zm12.09-7.49l-10.64 7 8.94-.49z" fill="#9dbbc9"/><path d="M60.59 114l-3.79-12.54 6.12 2.63zm-3.17-11.84l3.12 10.3 1.91-8.14z" fill="#9dbbc9"/><path d="M61.79 114.5l-14.68-12-2.35-10zm-14.33-12.27L59.33 112 45.56 94.16z" fill="#9dbbc9"/><path d="M69.09 115.71l-8.69-2.32v-.1L56.64 101zm-8.37-2.64L68 115l-10.42-12.32zM50 81.75l6-16.24 8.53 13.85zm6.06-15.33l-5.42 14.83 13.24-2.19zm86.37-55.54L125.94.69l22.79.47zm-14.31-9.55l14.13 8.73 5.39-8.33z" fill="#9dbbc9"/><path d="M129.07 10.55l-12.46-5.67L127.18.74zm-11.44-5.64l10.9 5-1.65-8.59z" fill="#9dbbc9"/><path d="M125.27 21.84L128.65 10h.14l14.5-.56zM129 10.4l-3 10.48 16-11z" fill="#9dbbc9"/><path d="M132.24 31l-7.08-9.91 13 2.55zm-6.17-9.33l6.19 8.67 5.21-6.44z" fill="#9dbbc9"/><path d="M137.49 24.14l5.07-14.93 5.91 9.58zm5.17-14l-4.49 13.22 9.73-4.74zm20.72 1.67L147.55 1.26l22.77-.55zM148.82 1.63l14.44 9.62 6.33-10.13z" fill="#9dbbc9"/><path d="M148.08 19.1l-6-9.75 22.08 1.15zm-4.92-9.1l5.13 8.31L162 11z" fill="#9dbbc9"/><path d="M137.44 24.27l5-14.75h.1L171.12.33zm5.32-14.44l-4.54 13.4L168.8 1.49zM29.43 47.53L27 33.1l9.62-6.85zm-2-14.25l2.13 12.62 6.26-18.61zM2.7 36a1.35 1.35 0 11-1.35-1.35A1.35 1.35 0 012.7 36zm1.86-8.8a1.35 1.35 0 11-1.35-1.35 1.35 1.35 0 011.35 1.35zm13.01 3.45a1.35 1.35 0 11-1.35-1.35 1.35 1.35 0 011.35 1.35z" fill="#9dbbc9"/><circle cx="27.37" cy="33.04" r="1.35" fill="#9dbbc9"/><path d="M30.84 46.58a1.35 1.35 0 11-1.34-1.35 1.34 1.34 0 011.34 1.35z" fill="#709cb1"/><path d="M45.18 37.82a1.35 1.35 0 11-1.35-1.35 1.34 1.34 0 011.35 1.35zm31.33-4.51A1.35 1.35 0 1175.17 32a1.35 1.35 0 011.34 1.31z" fill="#9dbbc9"/><circle cx="83.79" cy="39.68" r="1.35" fill="#9dbbc9"/><path d="M97.36 28.26A1.35 1.35 0 1196 26.91a1.35 1.35 0 011.36 1.35zm-41.09-.2a1.35 1.35 0 11-1.35-1.35 1.35 1.35 0 011.35 1.35zm12.15 19.52a1.35 1.35 0 11-1.35-1.35 1.36 1.36 0 011.35 1.35zm-23.7 4.58a1.35 1.35 0 11-1.35-1.35 1.36 1.36 0 011.35 1.35zM41.13 66.1a1.35 1.35 0 11-1.35-1.35 1.34 1.34 0 011.35 1.35z" fill="#9dbbc9"/><circle cx="56.11" cy="65.5" r="1.35" fill="#9dbbc9"/><path d="M101.08 55.94a1.35 1.35 0 11-1.35-1.35 1.35 1.35 0 011.35 1.35zm.59-7.94a1.35 1.35 0 11-1.35-1.35 1.35 1.35 0 011.35 1.35zm7.77 1.77a1.35 1.35 0 11-1.35-1.35 1.34 1.34 0 011.35 1.35zm5.83-8.2a1.35 1.35 0 11-1.35-1.35 1.35 1.35 0 011.35 1.35zm-5.34-10.23a1.35 1.35 0 11-1.35-1.34 1.35 1.35 0 011.35 1.34zm-9.05 8.27a1.35 1.35 0 11-1.35-1.35 1.35 1.35 0 011.35 1.35zm-41.62-.79a1.35 1.35 0 11-1.35-1.35 1.36 1.36 0 011.35 1.35zm21.5 13.74a1.35 1.35 0 11-1.35-1.35 1.35 1.35 0 011.35 1.35z" fill="#9dbbc9"/><circle cx="36.4" cy="26.67" r="1.35" fill="#9dbbc9"/><path d="M11.46 22.16a1.35 1.35 0 11-1.35-1.35 1.34 1.34 0 011.35 1.35zm16.46-6.64a1.35 1.35 0 11-1.35-1.35 1.35 1.35 0 011.35 1.35zM45.45 19a1.35 1.35 0 11-1.35-1.35A1.36 1.36 0 0145.45 19zm11.68-1.89a1.35 1.35 0 11-1.35-1.35 1.34 1.34 0 011.35 1.35z" fill="#9dbbc9"/><path d="M69.08 19.5a1.35 1.35 0 11-1.35-1.35 1.34 1.34 0 011.35 1.35z" fill="#709cb1"/><path d="M61.91 13.92a1.35 1.35 0 11-1.35-1.35 1.34 1.34 0 011.35 1.35zM72 10.74a1.35 1.35 0 11-1.35-1.35A1.35 1.35 0 0172 10.74zm12.75 7.96a1.35 1.35 0 11-1.35-1.35 1.35 1.35 0 011.35 1.35zm10.75-6.17a1.35 1.35 0 11-1.35-1.35 1.34 1.34 0 011.35 1.35z" fill="#9dbbc9"/><path d="M108.12 12.56a1.35 1.35 0 11-1.35-1.35 1.36 1.36 0 011.35 1.35z" fill="#709cb1"/><circle cx="116.26" cy="20.89" r="1.35" fill="#9dbbc9"/><path d="M102.67 4.56a1.35 1.35 0 11-1.35-1.34 1.35 1.35 0 011.35 1.34zm25.69-3.18A1.35 1.35 0 11127 0a1.36 1.36 0 011.36 1.38zM118.2 5a1.35 1.35 0 11-1.35-1.35A1.34 1.34 0 01118.2 5zm12.15 5.34A1.35 1.35 0 11129 9a1.35 1.35 0 011.35 1.34zm-3.47 11.22a1.35 1.35 0 11-1.35-1.35 1.35 1.35 0 011.35 1.35z" fill="#9dbbc9"/><path d="M133.5 31.16a1.35 1.35 0 11-1.35-1.35 1.35 1.35 0 011.35 1.35z" fill="#709cb1"/><path d="M139.47 24.07a1.35 1.35 0 11-1.35-1.35 1.36 1.36 0 011.35 1.35zm10.2-4.77a1.35 1.35 0 11-1.35-1.3 1.35 1.35 0 011.35 1.3z" fill="#9dbbc9"/><circle cx="163.25" cy="11.14" r="1.35" fill="#9dbbc9"/><path d="M171.19 1.35A1.35 1.35 0 11169.84 0a1.36 1.36 0 011.35 1.35zm-21.72.23a1.35 1.35 0 11-1.35-1.35 1.36 1.36 0 011.35 1.35zm-5.38 8.36a1.35 1.35 0 11-1.35-1.35 1.34 1.34 0 011.35 1.35zM22.61 62.78a1.35 1.35 0 11-1.35-1.35 1.34 1.34 0 011.35 1.35zm2.13 10.62a1.35 1.35 0 11-1.35-1.35 1.35 1.35 0 011.35 1.35z" fill="#9dbbc9"/><circle cx="29.23" cy="90.66" r="1.35" fill="#9dbbc9"/><circle cx="30.29" cy="82.43" r="1.35" fill="#9dbbc9"/><circle cx="35.34" cy="96.77" r="1.35" fill="#9dbbc9"/><path d="M48.63 102.34a1.35 1.35 0 11-1.34-1.34 1.34 1.34 0 011.34 1.34z" fill="#9dbbc9"/><circle cx="59.1" cy="94.98" r="1.35" fill="#9dbbc9"/><path d="M58.66 102a1.35 1.35 0 11-1.35-1.35 1.36 1.36 0 011.35 1.35zm5.77 2.53a1.35 1.35 0 11-1.35-1.34 1.34 1.34 0 011.35 1.34zm-2.78 8.77a1.35 1.35 0 11-1.35-1.3 1.36 1.36 0 011.35 1.3zm8.16 2.39a1.35 1.35 0 11-1.35-1.35 1.35 1.35 0 011.35 1.35zM46.78 93.05a1.35 1.35 0 11-1.35-1.35 1.35 1.35 0 011.35 1.35zm5.04-11.42a1.35 1.35 0 11-1.35-1.35 1.34 1.34 0 011.35 1.35z" fill="#9dbbc9"/><circle cx="64.01" cy="79.24" r="1.35" fill="#9dbbc9"/><circle cx="68.53" cy="88.54" r="1.35" fill="#9dbbc9"/><circle cx="70.39" cy="77.38" r="1.35" fill="#9dbbc9"/><path d="M81.56 70.75a1.35 1.35 0 11-1.35-1.35 1.35 1.35 0 011.35 1.35z" fill="#9dbbc9"/><circle cx="84.46" cy="61.98" r="1.35" fill="#9dbbc9"/><path d="M17.57 30.65a1.35 1.35 0 11-1.35-1.35 1.35 1.35 0 011.35 1.35zm27.61 7.17a1.35 1.35 0 11-1.35-1.35 1.34 1.34 0 011.35 1.35z" fill="#84aabb"/><circle cx="83.79" cy="39.68" r="1.35" fill="#84aabb"/><path d="M97.36 28.26A1.35 1.35 0 1196 26.91a1.35 1.35 0 011.36 1.35zm-52.64 23.9a1.35 1.35 0 11-1.35-1.35 1.36 1.36 0 011.35 1.35z" fill="#84aabb"/><circle cx="56.11" cy="65.5" r="1.35" fill="#84aabb"/><path d="M115.27 41.57a1.35 1.35 0 11-1.35-1.35 1.35 1.35 0 011.35 1.35zm-5.34-10.23a1.35 1.35 0 11-1.35-1.34 1.35 1.35 0 011.35 1.34zm-50.67 7.48a1.35 1.35 0 11-1.35-1.35 1.36 1.36 0 011.35 1.35zM45.45 19a1.35 1.35 0 11-1.35-1.35A1.36 1.36 0 0145.45 19zM72 10.74a1.35 1.35 0 11-1.35-1.35A1.35 1.35 0 0172 10.74zm12.75 7.96a1.35 1.35 0 11-1.35-1.35 1.35 1.35 0 011.35 1.35zm45.6-8.36A1.35 1.35 0 11129 9a1.35 1.35 0 011.35 1.34zm19.32 8.96a1.35 1.35 0 11-1.35-1.3 1.35 1.35 0 011.35 1.3zm21.52-17.95A1.35 1.35 0 11169.84 0a1.36 1.36 0 011.35 1.35zm-27.1 8.59a1.35 1.35 0 11-1.35-1.35 1.34 1.34 0 011.35 1.35z" fill="#84aabb"/><circle cx="29.23" cy="90.66" r="1.35" fill="#84aabb"/><circle cx="30.29" cy="82.43" r="1.35" fill="#84aabb"/><circle cx="59.1" cy="94.98" r="1.35" fill="#84aabb"/><path d="M58.66 102a1.35 1.35 0 11-1.35-1.35 1.36 1.36 0 011.35 1.35zm-6.84-20.37a1.35 1.35 0 11-1.35-1.35 1.34 1.34 0 011.35 1.35zm29.74-10.88a1.35 1.35 0 11-1.35-1.35 1.35 1.35 0 011.35 1.35zM58.17 39l-.29-.06-42.07-8.25 28.33-11.87.06.08zm-41.54-8.39l41 8-13.57-19.49z" fill="#84aabb"/><path d="M56.15 65.58L43.26 52.29l14.79-13.77zM43.61 52.3L56 65l1.82-25.92z" fill="#84aabb"/><path d="M80.89 71.09l-.44-.09-24.09-5.19v-.06L43.49 37.22l.42.38zM56.53 65.6l23.54 5.07-35.89-32.51zm27.28-26.02l-.54-20.81 25.67 12.57zm-.29-20.42L84 39.25l24.26-8z" fill="#84aabb"/><path d="M114.84 42l-19.4-14.1 13.26 3.35v.05zM96.58 28.4l17.5 12.71-5.54-9.69z" fill="#84aabb"/><path d="M84 40.15L70.5 10.26l.35.25 25.35 17.6-.11.11zM71.07 11l13 28.79 11.75-11.64z" fill="#84aabb"/><path d="M56.55 39.51l26.71-21 13.42 9.79zm26.72-20.3l-24 18.92L95.34 28zm65.02.34l-6-10.08h.15L170.35 1zm-5.63-9.94l5.69 9.58 21-17.6zm-85.51 92.64L28.44 90.64 59 94.89zM30.32 91.14L57 101.92l1.73-6.83z" fill="#84aabb"/><path d="M29.08 90.85l1.11-8.54h.1l20.83-.82zm1.32-8.31l-1 7.93 20.45-8.69z" fill="#84aabb"/><path d="M28.85 91.24l14.47-39.3.13.14 12.88 13.33zm14.57-38.86l-14 38L56 65.41z" fill="#84aabb"/><path d="M69.68 124.32l1.72-8.59 7.38-6.53h.11l11.34 3.18zm2.09-8.38l-1.52 7.6 19-11-10.33-2.9z" fill="#9dbbc9"/><path d="M82.24 120.06L71.34 116l7.66-7zm-10.15-4.25l9.54 3.6-2.85-9.67z" fill="#9dbbc9"/><path d="M78.18 131.37l-8.58-7.73 12.65-4.22zm-7.81-7.57l7.63 6.87 3.62-10.62z" fill="#9dbbc9"/><path d="M98.24 120.48l-16.79-.56 8.32-7.76zm-15.82-.93l14.81.5-7.46-7.34z" fill="#9dbbc9"/><path d="M98.68 130.17l-1.17-10.1h5.71zm-.72-9.7l1 8.22 3.69-8.22zm-24.71 33.71L78 130.57l8.75 10.56zm5-22.71L73.89 153l12.29-11.9z" fill="#9dbbc9"/><path d="M74.07 155.22l-9.59-18.74 5.67-13.95zm-8.93-18.77L73.08 152l-3.25-27.1zM106.09 148l-28.83-17.58 21.67-1.2v.14zm-27.52-17.25L105.31 147l-6.65-17.38z" fill="#9dbbc9"/><path d="M93.74 154.27l-.1-.17L86 140.76l20.18 6.68zm-6.86-12.81l7 12.27 11.31-6.2z" fill="#9dbbc9"/><path d="M81.24 159.93L73 153.38l21.71.44zm-7.08-6.13l7.14 5.67 11.64-5.29zm31.5-4.8l-3-29.64 6.08 10.12v.07zm-2.46-27.9l2.54 24.79 2.54-16.33z" fill="#9dbbc9"/><path d="M118.32 152.88l-10.49-24.08 9.31 5.77zm-9.18-22.56l8.37 19.2-1-14.61z" fill="#9dbbc9"/><path d="M117.44 151.69l7.66-14.9 4.23 8.39zm7.65-14l-6.7 13L128.8 145z" fill="#9dbbc9"/><path d="M123.88 157l-7.33-22.57 8.75 2.64zm-6.72-22l6.47 20 1.25-17.58z" fill="#9dbbc9"/><path d="M106.68 163l23-18.65-5.74 11.77h-.07zm21.81-17.2L109 161.68l14.64-5.86z" fill="#9dbbc9"/><path d="M111 174.07l13.16-19.56-3.09 12.19zm12.21-17.43l-10.61 15.77 8.11-5.95zm-15.52 6.16l-2.23-15.6 12.81 3.9zm-1.75-15l2 14.14 9.6-10.6z" fill="#9dbbc9"/><path d="M95.31 183.09l12.56-21.2 4.18 11.44-.14.08zm12.47-20.27L96.44 182l15.12-8.82z" fill="#9dbbc9"/><path d="M103.58 193.5l-8.27-11.42 12.55 5.14zM96.45 183l7.12 9.83 3.69-5.41z" fill="#9dbbc9"/><path d="M107.65 187.71l-16-18.22 20.42 3.59zm-15-17.63l14.79 16.83 4.08-13.51z" fill="#9dbbc9"/><path d="M91.92 170.12l1.73-16.45 14.6 8.7zM94 154.33l-1.59 15.13 15-7.13z" fill="#9dbbc9"/><path d="M83.25 180.35L81 159.19l11.42 10.58zm-1.72-20.15l2 19.2 8.33-9.6z" fill="#9dbbc9"/><path d="M83.1 193.8v-14.29l13.43 2.86zm.6-13.55v12.26l11.52-9.81z" fill="#9dbbc9"/><path d="M89.15 213.48L83 192.59 97 204zm-5.38-19.76l5.55 18.93 7.07-8.58z" fill="#9dbbc9"/><path d="M96.5 204.69l-.85-22.8 8.17 11.26-.08.11zm-.4-21.51l.75 20.21 6.49-10.23zm7.17 38.82l-14.82-9.19 8.6.6v.07zM90 213.32l11.73 7.28-4.93-6.81z" fill="#9dbbc9"/><path d="M97.28 215.26L83.12 180l.54-.26L97 204zm-11.76-30.9l11.07 27.58-.21-7.82zm-8.84-87.59L63.9 93l4.78-4.72zm-12-4L75.38 96l-6.71-7.12z" fill="#9dbbc9"/><path d="M84 99.2l-8.33-2.75L67 87.28zm-8-3.06L81.59 98 70 89.88z" fill="#9dbbc9"/><circle cx="83" cy="98.76" r="1.35" fill="#9dbbc9"/><path d="M77.44 96.5a1.35 1.35 0 11-1.35-1.35 1.34 1.34 0 011.35 1.35z" fill="#9dbbc9"/><path d="M65.63 92.92a1.35 1.35 0 11-1.35-1.35 1.36 1.36 0 011.35 1.35z" fill="#709cb1"/><circle cx="78.88" cy="109.38" r="1.35" fill="#9dbbc9"/><path d="M73.06 115.89a1.35 1.35 0 11-1.35-1.35 1.35 1.35 0 011.35 1.35z" fill="#9dbbc9"/><circle cx="69.99" cy="123.72" r="1.35" fill="#709cb1"/><path d="M66.16 136.46a1.35 1.35 0 11-1.35-1.35 1.34 1.34 0 011.35 1.35z" fill="#9dbbc9"/><circle cx="78.09" cy="131.02" r="1.35" fill="#9dbbc9"/><circle cx="81.94" cy="119.74" r="1.35" fill="#9dbbc9"/><path d="M91.12 112.43a1.35 1.35 0 11-1.35-1.35 1.35 1.35 0 011.35 1.35zm7.96 7.84a1.35 1.35 0 11-1.35-1.35 1.35 1.35 0 011.35 1.35zm5.18 0a1.35 1.35 0 11-1.35-1.35 1.35 1.35 0 011.35 1.35zm5.58 9.29a1.35 1.35 0 11-1.35-1.35 1.35 1.35 0 011.35 1.35zm-9.69-.13a1.35 1.35 0 11-1.35-1.35 1.36 1.36 0 011.35 1.35zM87.8 141.11a1.35 1.35 0 11-1.35-1.35 1.34 1.34 0 011.35 1.35z" fill="#9dbbc9"/><circle cx="73.57" cy="153.59" r="1.35" fill="#9dbbc9"/><circle cx="81.27" cy="159.7" r="1.35" fill="#709cb1"/><circle cx="94.02" cy="154.39" r="1.35" fill="#9dbbc9"/><circle cx="105.7" cy="147.48" r="1.35" fill="#9dbbc9"/><path d="M118.2 134.74a1.35 1.35 0 11-1.35-1.35 1.35 1.35 0 011.35 1.35zm8.23 2.92a1.35 1.35 0 11-1.35-1.35 1.35 1.35 0 011.35 1.35zm3.99 7.43a1.35 1.35 0 11-1.35-1.35 1.35 1.35 0 011.35 1.35zm-11.16 6.11a1.35 1.35 0 11-1.35-1.35 1.34 1.34 0 011.35 1.35zm5.85 4.8a1.35 1.35 0 11-1.35-1.35 1.35 1.35 0 011.35 1.35zm-2.66 10.6a1.35 1.35 0 11-1.35-1.35 1.34 1.34 0 011.35 1.35zm-13.28-4.25a1.35 1.35 0 11-1.35-1.35 1.34 1.34 0 011.35 1.35z" fill="#9dbbc9"/><circle cx="111.81" cy="173.24" r="1.35" fill="#9dbbc9"/><circle cx="92.16" cy="169.79" r="1.35" fill="#9dbbc9"/><path d="M84.75 179.88a1.35 1.35 0 11-1.35-1.35 1.36 1.36 0 011.35 1.35zm12.48 2.65a1.35 1.35 0 11-1.35-1.35 1.35 1.35 0 011.35 1.35z" fill="#9dbbc9"/><circle cx="107.56" cy="187.31" r="1.35" fill="#709cb1"/><path d="M104.93 193.15a1.35 1.35 0 11-1.35-1.35 1.35 1.35 0 011.35 1.35zm-20.18 0a1.35 1.35 0 11-1.35-1.35 1.35 1.35 0 011.35 1.35zM98 204a1.35 1.35 0 11-1.35-1.35A1.34 1.34 0 0198 204z" fill="#9dbbc9"/><circle cx="89.24" cy="213.07" r="1.35" fill="#9dbbc9"/><path d="M98.29 213.6a1.35 1.35 0 11-1.35-1.35 1.36 1.36 0 011.35 1.35z" fill="#9dbbc9"/><circle cx="102.51" cy="221.3" r="1.35" fill="#9dbbc9"/><path d="M86.15 141.73L81.48 119l17.79 10.22zm-3.82-21.53l4.19 20.36 11.76-11.2z" fill="#84aabb"/><path d="M73.49 153.74l.05-.18 8.3-33.84.16.17 23.82 27.55h-.2zM82 120.22l-8.16 33.21 31.56-6.14z" fill="#84aabb"/><path d="M107.66 162.67l-2.2-15.41h.12l24-2.56zm-1.93-15.2l2.1 14.74L128.77 145z" fill="#84aabb"/><path d="M95.78 182.75l-3.6-13.27L106 146.54zm-3.34-13.24l3.34 12.34 9.46-33.66z" fill="#84aabb"/><path d="M103.62 193.48l-11.47-24 .11-.05 15.63-7.15v.22zm-11.15-23.92l11 23.09 4.11-30z" fill="#84aabb"/><path d="M103.66 193.41l-8-11.09v-.06L106 146.41zm-7.75-11.13l7.55 10.44 2.2-44.26z" fill="#84aabb"/><path d="M108.14 162.67l-34.72-9 .15-.15L86.33 141zm-34.25-9.15l33.46 8.69-21-20.9zm31.86-5.96v-.08l-7-18.07.28.14 30.62 15.38h-.4zm-6.63-17.65l6.79 17.4 22.83-2.53z" fill="#84aabb"/><circle cx="81.94" cy="119.74" r="1.35" fill="#84aabb"/><path d="M100.15 129.43a1.35 1.35 0 11-1.35-1.35 1.36 1.36 0 011.35 1.35z" fill="#709cb1"/><path d="M87.8 141.11a1.35 1.35 0 11-1.35-1.35 1.34 1.34 0 011.35 1.35z" fill="#84aabb"/><circle cx="73.57" cy="153.59" r="1.35" fill="#84aabb"/><circle cx="105.7" cy="147.48" r="1.35" fill="#84aabb"/><path d="M130.42 145.09a1.35 1.35 0 11-1.35-1.35 1.35 1.35 0 011.35 1.35zm-21.25 17.26a1.35 1.35 0 11-1.35-1.35 1.34 1.34 0 011.35 1.35z" fill="#84aabb"/><circle cx="92.16" cy="169.79" r="1.35" fill="#84aabb"/><path d="M97.23 182.53a1.35 1.35 0 11-1.35-1.35 1.35 1.35 0 011.35 1.35zm7.7 10.62a1.35 1.35 0 11-1.35-1.35 1.35 1.35 0 011.35 1.35z" fill="#84aabb"/><circle cx="89.24" cy="213.07" r="1.35" fill="#84aabb"/><path d="M84.4 62.13l-5.21-9.73 21 3.5zm-4.77-9.41l4.88 9.11L99.28 56z" fill="#3d5f6f"/><path d="M55.52 65.7l23.94-13.31 5.19 9.69h-.18zm23.85-13L56.71 65.31l27.56-3.42z" fill="#3d5f6f"/><path d="M45.48 93.25l-.13-.11-22.21-19.8h.22l33-8-.09.22zM23.64 73.46l21.74 19.39 10.54-27.18z" fill="#3d5f6f"/><path d="M56 65.65l1.65-26.31.15.06L100.14 56l-.39.08zm1.87-26l-1.63 25.7 43.08-9.44zM57.24 102l-11.91-8.87-24.16-30.27.18-.16 36.05 39.16zm-11.73-9l10.83 8.11-32.86-35.75z" fill="#3d5f6f"/><path d="M68.52 88.77l-.1-.18-12.54-23.26.26.06 24.32 5.38-.09.15zM56.34 65.68l12.2 22.62 11.53-17.37zM84.6 62.8L75 33.29l8.47-15v.43zm-9.3-29.48l9 27.85-1-42z" fill="#3d5f6f"/><path d="M79.59 52.8l-.24-.14-43.56-26.22 39.47 6.76v.08zM37 26.89l42.24 25.42-4.17-18.9z" fill="#3d5f6f"/><path d="M75.23 33.44l-39.54-6.77.69-.12 47.24-8zm-38.12-6.77l38 6.51 8.07-14.32z" fill="#3d5f6f"/><path d="M57.7 39.63L10.07 22.27l.06-.23 26.33 4.53L57.8 39.41zM11.4 22.5L56.62 39 36.36 26.78zm72.69 39.76l.28-.35 24.57-31.23L99.82 56zM108.22 32L84.83 61.71l14.8-5.86zM80.39 71h-.14l-59.76-8.2.75-.14 58.29-10.24zM22 62.77l58.1 7.94-.84-18z" fill="#3d5f6f"/><path d="M56.32 65.64h-.22l-35-2.73.06-.16 15.23-36.36.12.23zm-34.88-3l34.47 2.7L36.41 27zm58.85 8.44l-.12-.16-23.09-32.11L84.61 62v.09zM58.4 40.22l21.85 30.4L84.31 62z" fill="#3d5f6f"/><path d="M84.67 62.18l-14-4.78 7.8-9.85zm-13.62-4.9l13.19 4.5L78.39 48zm54.02-35.55l17.71-12 5.74 9.63h-.19zm17.63-11.62L126 21.39l22.13-2.19z" fill="#3d5f6f"/><path d="M79.26 52.82v-.28l4-34 .15.08 25.36 12.72zm4.24-33.93L79.56 52.3l28.79-20.95zM73.41 153.74v-.18l8.42-34.08.15.18 23.9 27.9h-.21zM82 120l-8.27 33.45 31.75-6z" fill="#3d5f6f"/><path d="M111.73 173.44v-.17L105.46 147l15.81 19.62-.1.08zM105.94 148l5.94 25 9.05-6.46z" fill="#3d5f6f"/><path d="M103.69 193.7l-.17-.11-20.13-13.33.06-.1 22.39-33.1zm-20-13.51l19.75 13.08 2.09-45.37z" fill="#3d5f6f"/><path d="M122.11 167l-17.23-5.22-14.26-12.5zM105 161.61l15.07 4.56-27.56-15.52z" fill="#3d5f6f"/><path d="M112.34 173.91l-15.26-14.36 8 2.07zM97.93 160l13.34 12.55-6.39-10.75z" fill="#3d5f6f"/><path d="M111.89 173.52l-.17-.2-20.53-23.59 22.74 7.63v.09zm-20-23.29L111.72 173l2-15.44z" fill="#3d5f6f"/><path d="M103.64 193.67l-.13-.08-20.81-13.9.27-.06 29-6.56zM83.3 179.8l20.23 13.51 8.08-19.9z" fill="#3d5f6f"/><path d="M112.13 173.54L73 153.44l27.7 1.49v.06zm-38-19.8l37.36 19.2-10.89-17.77z" fill="#3d5f6f"/><path d="M89.33 213.4l-.2-.12L117.81 151l.22.09L104.2 193zm27.81-60.34l-27.29 59.22L104 192.83z" fill="#3d5f6f"/><path d="M108.55 159.65l-3-12.34.19.06 12.42 3.63zm-2.68-12l2.82 11.55 9-8.07z" fill="#3d5f6f"/><path d="M118 151.11h-.34l-26.17-1v-.08l-9.76-30.66zm-26.34-1.25l25.67 1-35.15-30.75zm-2.31 63.51l-.23-.06 8.29-53.67 7.7 2v.12zm8.25-53.43l-8 51.76 15.2-49.9z" fill="#3d5f6f"/><path d="M165.39 44.33l9-11.63-.29 8.72zM174 33.92l-7.48 9.62 7.24-2.41z" fill="#9dbbc9"/><path d="M180 43.31l-6.3-1.89.18-9zm-5.9-2.18l5.07 1.51-4.92-8.76z" fill="#9dbbc9"/><path d="M173.24 46.25l.53-5.24 6.66 2.09zm.87-4.71l-.41 4.07 5.6-2.45zm7.59 16.39L172.86 50l10.2-4.42zm-8.11-7.78l7.8 7 1.2-10.87zm3.23 17.46L166 57.48l10.05.17zM167 57.89l9.32 8.73-.64-8.62z" fill="#9dbbc9"/><path d="M165.81 67l.51-9.46 10.15-.09zm.89-9.07l-.44 8.07 9.16-8.2z" fill="#9dbbc9"/><path d="M165.31 66.68l16.56-10-5 9.92zm15.58-9l-14.13 8.54 9.86-.07z" fill="#9dbbc9"/><path d="M181.21 59l-2-16.6 3.79 3.46zm-1.48-15.6l1.51 12.5 1.37-9.9z" fill="#9dbbc9"/><path d="M195.19 54.81l-12.7-8.87 7.34-5.65zm-12-8.89l11.22 7.84-4.73-12.83z" fill="#9dbbc9"/><path d="M195.84 63L189 55l6-1.32zm-6.13-7.79l5.61 6.58-.71-7.65z" fill="#9dbbc9"/><path d="M193.82 68.62l1.33-7 5.95.59zm1.66-6.55l-1.06 5.49 5.73-5zm-14.63-4.33l9.12-18-.57 15.93zm8.66-16.23l-7.91 15.64 7.4-1.83zm1.59-8.05l-8.33-3.59 9.48-5zm-7.41-3.62l7.08 3.05 1-7.32z" fill="#9dbbc9"/><path d="M191.48 25.47l8.09-8.79 6 7.09zm8.08-8.19L192.51 25l12.24-1.49zM197 37.53l-6.37-4.35 6.66-4.78zm-5.68-4.36l5.31 3.62.24-7.6z" fill="#9dbbc9"/><path d="M196.6 29.45l2.79-13.11 6.34 7.07zm3.13-11.84l-2.24 10.53 7.33-4.85z" fill="#9dbbc9"/><path d="M218.33 26.41l-13.57-3 10.17-6.5zm-12.54-3.15l11.92 2.61-3-8.32z" fill="#9dbbc9"/><path d="M205.23 23.61l-6.12-6.84 16.81.29zM200 17.18l5.29 5.91 9.23-5.66z" fill="#9dbbc9"/><path d="M211.29 32.15l-8.94-2 2.88-7.21zm-8.4-2.3l7.52 1.69-5.09-7.76z" fill="#9dbbc9"/><path d="M221.11 34.65l-10.7-2.71 7.71-6.13zm-9.82-2.9l9.21 2.34-2.58-7.62zm-22.11 9.39l8.1-13.14-.44 9zm7.62-11.58l-6.5 10.52 6.15-3.31zm16.07 15.19l-12.68-2 3.7-7.27zm-12.07-2.3l10.95 1.72-7.75-8z" fill="#9dbbc9"/><path d="M212.18 44.93l-2-13.62 10.95 2.95zm-1.49-13.08L212.44 44l8-9.51z" fill="#9dbbc9"/><path d="M203.75 52.75v-17.3l7.06-4.32zm.39-17.07v14.57l6-18.22z" fill="#9dbbc9"/><path d="M203.77 51.76L189 40.31l12 1.71zm-13.32-10.85l12.61 9.79-2.33-8.32z" fill="#9dbbc9"/><path d="M204.31 61.76l-9.94-7.95L203.6 51v.25zM195.2 54l8.65 6.91-.62-9.39z" fill="#9dbbc9"/><path d="M205.29 68.91l-1.18-7.37 6.19-.54zm-.72-7l1 5.9 4-6.38z" fill="#9dbbc9"/><path d="M209.92 61.56L203 51l12.82 1.27zm-6.11-10.09l6.11 9.35 5.23-8.23z" fill="#9dbbc9"/><path d="M215 52.69l12.7-12.85-2.7 11.71zm12-11.57l-11 11.04 8.6-1z" fill="#9dbbc9"/><path d="M215.52 53l-3.44-8.61 9.18-10.9zm-3-8.53l2.93 7.32 4.88-16.6z" fill="#9dbbc9"/><path d="M220.3 56l-5.3-3.71 10.4-1.19zm-4.3-3.44l4.21 2.93 4-3.86zm-3.27 17.3l-3.23-9 11.5-.11zm-2.39-8.38l2.66 7.24 6.64-7.36z" fill="#9dbbc9"/><path d="M223.51 69l-3-8.39 11.24-.29zm-2.42-8l2.58 7.27 7.15-7.52z" fill="#9dbbc9"/><path d="M231.3 60.87l-7-9.9 11.06 3.87zm-6-9.11l6 8.41 3.41-5.12zm-12.98 17.77l8.42-8.53 3.14 7.56zm8.28-7.86L213.36 69l9.95-.86z" fill="#9dbbc9"/><path d="M222.58 77.5l.85-9.52 9.8 7.39zm1.18-8.77L223 77l9.26-1.85zM244.6 51l-17.77-10.58 14.44-4.72zm-16.81-10.47L244 50.16l-3-13.94z" fill="#9dbbc9"/><path d="M241.47 36.19l-21-1.65 11.41-15.67zm-20.29-2l19.58 1.54-9-16.14z" fill="#9dbbc9"/><path d="M240.58 36.46l7.29-17.11 17.13 8.7zm7.59-16.28l-6.51 15.28 21.8-7.52z" fill="#9dbbc9"/><path d="M260.37 71.29l-19.9-35.88 17.66 6.45v.19zm-18.6-34.77l17.8 32.09-2-26.33zm-9.9-17.09l-.12-.38 15.45-6.66h.05l10.46 1.19zm15.39-6.63l-13.38 5.77 21.45-4.85z" fill="#9dbbc9"/><path d="M266.07 29.27L247.74 20l-.9-8.11zm-17.77-9.7l14.07 7.15-14.76-13.37z" fill="#9dbbc9"/><path d="M264.35 28.65l-8.1-15.08 10.33-5v.36zm-7.56-14.9l7.3 13.59 2-18.12zm53.69 25.78l-69.38-3.27v-.59l46.55-5.86h.07zm-65.89-3.7l62.59 2.94-19.64-8.34zm-17.28 4.92l-6.84-6.42L249.12 19zm-6.17-6.34l6.17 5.79 19.62-19.62zm22.4 25.52l.57-9.48.09-.05 14.56-9.14zm1-9.25l-.49 8 12.92-15.84z" fill="#9dbbc9"/><path d="M235.21 54.68l5.94-19.52 3.11 14.72zm5.87-17.92l-5.21 17.12 7.94-4.22z" fill="#9dbbc9"/><path d="M239.07 66.75l-8-6.18 4.6-6.76zm-7.51-6.27l6.83 5.24-2.93-11zm-5.26 27.33l-5.41-5.42 12.39-7.69zm-4.78-5.34l4.68 4.67 6-11.32z" fill="#9dbbc9"/><path d="M232.61 75.84l-1.56-15.75 7.95 6.1zM231.54 61l1.36 13.72 5.56-8.4zm16.89 9.69l-.06-.13-5.6-12 17.83 11.6zm-4.71-11.08l5 10.67 10.66-.5z" fill="#9dbbc9"/><path d="M250.93 85.24l-10.89-5L238.28 65zm-10.33-5.4l8.77 4-10.19-16.32z" fill="#9dbbc9"/><path d="M250.53 85.73L238 65.69l11.33 3.77zm-11.11-19l10.34 16.59-1-13.47zm19.73 4.17l9.44-15.18h.06l20-9.43zm9.72-14.9l-8.07 13L286 48zm-34.15 44.81l-.14-.22-8.72-13.35 19.39 1.66zm-8.08-13.1l8.13 12.45 9.65-10.93z" fill="#9dbbc9"/><path d="M245.71 90.37l-14-16 8.78 5.54zm-11.9-14.21L244 87.77l-3.79-7.59z" fill="#9dbbc9"/><path d="M248.23 104.58l-3.66-15.78 9.3 2.25-.09.22zm-3.13-15.24l3.24 14 5-12z" fill="#9dbbc9"/><path d="M236.19 109l-1.7-8.77 14.44 3.67zm-1.19-8.24l1.49 7.68 11.16-4.44zM220.71 35l-3.06-9 14.73-7.54zm-2.33-8.73l2.52 7.43 9.6-13.63zm60.88-6.53l-13.8-11.5 19.41.14zM267.12 8.85l11.94 10L283.91 9z" fill="#9dbbc9"/><path d="M287.47 30.71l-3.33-22.34 13.27 5.17-.12.2zM284.63 9l3.07 20.54 9.13-15.79z" fill="#9dbbc9"/><path d="M309.16 39.93l-.36-.26-29.93-21.08L306.55 16v.19zM280 18.88l28.69 20.21-2.5-22.69z" fill="#9dbbc9"/><path d="M268.38 56.76l-4.72-28.88 16.1-9.58zm-4.28-28.68L268.49 55l10.6-35.81zm34.73 29.3l-12-10.54v-.1l.54-17.57zm-11.56-10.72L297.83 56l-10.08-24.93zm-21.43 40.53l-16-2.49L260 69.5zm-15.35-2.78l14.77 2.29-5.35-16.3z" fill="#9dbbc9"/><path d="M273.29 73.08L259.24 70l40.58-14zm-12.59-3.17l12.51 2.75 23.62-15.26z" fill="#9dbbc9"/><path d="M291.66 74.44l-18.57-1.38v-.14l-5-17.61zm-18.26-1.76l17 1.27-21.6-17.53z" fill="#9dbbc9"/><path d="M274.53 91.24L265.27 87l8.14-14.87zm-8.71-4.39l8.27 3.76-1-17zm40.55-70.46l-10.48-2.33 23.33-.86.05.4zM299 14.33l7.37 1.67L317 13.67z" fill="#9dbbc9"/><path d="M308.34 40.54l10.13-28.23 2 13.35zm10-26.6l-8.84 24.54L320 25.55z" fill="#9dbbc9"/><path d="M337 33l-19.51-20.37 15.75 3.43zm-17.72-19.37L335.92 31l-3.18-14.44z" fill="#9dbbc9"/><path d="M350.65 28.06l-.25-.16-18.77-12.43 21 2.8zm-17.36-12l17.09 11.34 1.76-8.79z" fill="#9dbbc9"/><path d="M348.52 33.52l-13-1.44 15.57-5.47zm-11.19-1.64l10.93 1.21 2.18-5.83zm30.99-8.45h-.07l-17.56-5.27 25.56 1.47zm-14.27-4.7L368.29 23l6.4-3.08z" fill="#9dbbc9"/><path d="M355.5 28l12.89-5 2.93 4.69zm12.72-4.49l-10.48 4.05 12.87-.24z" fill="#9dbbc9"/><path d="M357 28l-6.4-.88 1.74-9.32zm-6-1.23l5.28.72-3.84-8.4z" fill="#9dbbc9"/><path d="M355.31 38.87l1.16-11.66 4.67 6.12zm1.46-10.62l-1 9.59 4.79-4.55z" fill="#9dbbc9"/><path d="M363.31 47l-6.94-19.42 12.21-4.72zm-6.44-19.19l6.34 17.75L368 23.54z" fill="#9dbbc9"/><path d="M363.57 46.93l-8.29-8.58.14-.14 5.58-5.3zm-7.73-8.57l7.1 7.35-2.2-12zm-22.24 2.77l-14.05-16 17.14 6.74-.06.18zm-12.66-15l12.5 14.26 2.75-8.25z" fill="#9dbbc9"/><path d="M344.31 60.78L332.88 40.2l13.72 4.86zm-10.15-19.49L344 58.94l2-13.48zm-19.77 34.08l-5.82-36.8 9.76 15.67zm-5.12-34.92L314.42 73l3.49-18.71z" fill="#9dbbc9"/><path d="M327.62 65.13L317.56 54l26.82 5.86zm-8.94-10.52l9.06 10.07 15.1-4.78z" fill="#9dbbc9"/><path d="M336.67 65.65l-9.24-.56 6.16-25.47zm-8.74-.93l8.29.5-2.77-23.35z" fill="#9dbbc9"/><path d="M342.15 73.94l-6-8.54 7.69-6zm-5.44-8.46l5.17 7.38 1.48-12.55zm-1.81 25.85L327.21 64l10 12.82zm-6.75-25.5l6.64 23.63 2-12.55z" fill="#9dbbc9"/><path d="M321.76 95.56l-.11-.32L314.11 74l24.06 3zm-7.06-21.12l7.21 20.35 15.46-17.52z" fill="#9dbbc9"/><path d="M314.86 74.4h-23.59l7.13-17.56zm-23-.4h22.08l-15.4-16.43z" fill="#9dbbc9"/><path d="M322.63 95.48l-24.57-3.31-6.9-18.5zm-24.28-3.67L321 94.87l-29-20.15z" fill="#9dbbc9"/><path d="M321.64 101.81l-19.31-1.13-4.55-9.09zm-19.06-1.52l16.8 1-20.75-8.89z" fill="#9dbbc9"/><path d="M307.93 102.89l14.19-8.11-1.44 7zm13.62-7.32l-11.83 6.76 10.63-1z" fill="#9dbbc9"/><path d="M327.24 109.71l-14.59-1.24L308 102zM313 107.9l10.37.88-13.67-5.51z" fill="#9dbbc9"/><path d="M320.25 114.92l-7.9-6.73 8.49-7.32zm-7-6.74l6.44 5.49.47-11.45z" fill="#9dbbc9"/><path d="M311.21 119.87l-2.7-18.05 4.51 6.32zm-2.06-16.47l2.07 13.81 1.38-9z" fill="#9dbbc9"/><path d="M318 128.55l-7-10v-.08l1.74-11.34zm-6.61-10.06l5.71 8.1-4.29-17.39zm-24.82-15.03l-11.65-2.28-.85-10.8zm-11.28-2.61l10.12 2-10.86-11.38z" fill="#9dbbc9"/><path d="M289.19 120.31l-6.88-4.87 3.69-13.19zm-6.42-5l5.86 4.16L286 104z" fill="#9dbbc9"/><path d="M282.62 115.94L274.88 101l.06-.1L292 73.09zM275.33 101l7.13 13.75 8.66-39.46z" fill="#9dbbc9"/><path d="M286 103.42l-11.63-12.71 24.33 1.1zm-10.69-12.27L286 102.86l11.72-10.69z" fill="#9dbbc9"/><path d="M86.34 62a1.88 1.88 0 11-1.88-1.88A1.88 1.88 0 0186.34 62zM25.16 73.4a1.78 1.78 0 11-1.77-1.77 1.78 1.78 0 011.77 1.77zM83 119.74a1 1 0 01-2 0 1 1 0 112 0z" fill="#3d5f6f"/><circle cx="73.57" cy="153.59" r="1.01" fill="#3d5f6f"/><path d="M122.11 166.6a1.11 1.11 0 01-1 1 1 1 0 110-2 1.11 1.11 0 011 1zm-2.21-15.51a2.18 2.18 0 01-2 2 2 2 0 010-4 2.18 2.18 0 012 2zm-28.61 62.24a2.27 2.27 0 01-2.05 2.06 2.06 2.06 0 110-4.11 2.26 2.26 0 012.05 2.05zm18-53.77a.74.74 0 01-.67.67.67.67 0 110-1.33.74.74 0 01.67.66zm-3.52 2.3a.74.74 0 01-.67.67.67.67 0 010-1.34.74.74 0 01.67.67zM98 159.92a.73.73 0 01-.66.67.67.67 0 110-1.33.73.73 0 01.66.66zm-5.77-9.8a.74.74 0 01-.67.67.67.67 0 010-1.34.74.74 0 01.67.67z" fill="#3d5f6f"/><circle cx="111.81" cy="173.24" r="1.01" fill="#3d5f6f"/><path d="M104.93 193.15a1.35 1.35 0 11-1.35-1.35 1.35 1.35 0 011.35 1.35z" fill="#3d5f6f"/><circle cx="79.41" cy="52.56" r="1.63" fill="#3d5f6f"/><path d="M101.08 55.94a1.35 1.35 0 11-1.35-1.35 1.35 1.35 0 011.35 1.35z" fill="#3d5f6f"/><circle cx="105.7" cy="147.48" r="2.01" fill="#3d5f6f"/><circle cx="56.11" cy="65.5" r="1.35" fill="#3d5f6f"/><path d="M22.28 62.78a1 1 0 11-1-1 1 1 0 011 1zm24.93 30.27a1.79 1.79 0 11-1.78-1.78 1.79 1.79 0 011.78 1.78zm37.54 86.83a1.35 1.35 0 11-1.35-1.35 1.36 1.36 0 011.35 1.35zm24.84-148.54a1 1 0 11-1-1 1 1 0 011 1zM81.28 70.85a1 1 0 11-1-1 1 1 0 011 1zM11.12 22.16a1 1 0 11-1-1 1 1 0 011 1zm115.42-.6a1 1 0 11-1-1 1 1 0 011 1zm22.79-2.26a1 1 0 11-1-1 1 1 0 011 1zm-5.58-9.36a1 1 0 11-1-1 1 1 0 011 1zM76.18 33.31a1 1 0 11-1-1 1 1 0 011 1zm8.23-14.61a1 1 0 11-1-1 1 1 0 011 1zm-47 7.97a1 1 0 11-1-1 1 1 0 011 1zM58.92 39a1 1 0 01-2 0 1 1 0 112 0z" fill="#3d5f6f"/><circle cx="70.65" cy="57.34" r=".83" fill="#3d5f6f"/><path d="M79.25 47.58a.83.83 0 11-.83-.83.83.83 0 01.83.83z" fill="#3d5f6f"/><circle cx="87.18" cy="58.73" r=".83" fill="#3d5f6f"/><path d="M75.07 53.35a.84.84 0 01-.83.84.84.84 0 110-1.67.83.83 0 01.83.83zm5.54 6.97a.83.83 0 11-.83-.83.84.84 0 01.83.83z" fill="#3d5f6f"/><circle cx="56.51" cy="56.74" r=".83" fill="#3d5f6f"/><path d="M74.87 61.72a.83.83 0 11-.83-.83.83.83 0 01.83.83zM29.66 72.27a.83.83 0 11-.83-.83.83.83 0 01.83.83zm62.93-19.51a.83.83 0 11-.83-.83.83.83 0 01.83.83z" fill="#3d5f6f"/><circle cx="68.53" cy="88.54" r="1.01" fill="#3d5f6f"/><circle cx="57.31" cy="101.95" r="1.01" fill="#3d5f6f"/><path d="M167.37 66.7a1.35 1.35 0 11-1.37-1.35 1.34 1.34 0 011.37 1.35z" fill="#9dbbc9"/><circle cx="166.51" cy="58" r="1.35" fill="#9dbbc9"/><circle cx="175.8" cy="58" r="1.35" fill="#9dbbc9"/><path d="M178 66.76a1.35 1.35 0 11-1.35-1.35 1.35 1.35 0 011.35 1.35z" fill="#709cb1"/><path d="M182.72 57.47a1.35 1.35 0 11-1.34-1.35 1.34 1.34 0 011.34 1.35zm7.97-2.12a1.35 1.35 0 11-1.35-1.35 1.35 1.35 0 011.35 1.35zm6.09 6.73a1.35 1.35 0 11-1.35-1.35 1.36 1.36 0 011.35 1.35zm5.22.68a1.35 1.35 0 11-1.35-1.35 1.34 1.34 0 011.35 1.35z" fill="#9dbbc9"/><circle cx="194.12" cy="68.09" r="1.35" fill="#9dbbc9"/><path d="M174.76 50.3a1.35 1.35 0 11-1.35-1.3 1.35 1.35 0 011.35 1.3zm9.56-4.25A1.35 1.35 0 11183 44.7a1.35 1.35 0 011.32 1.35zm-9.32-.26a1.35 1.35 0 11-1.34-1.35 1.35 1.35 0 011.34 1.35zm.29-4.52a1.35 1.35 0 11-1.35-1.35 1.34 1.34 0 011.35 1.35zm-7.83 2.56a1.35 1.35 0 11-1.35-1.35 1.35 1.35 0 011.35 1.35zm8.1-10.52a1.35 1.35 0 11-1.35-1.31 1.36 1.36 0 011.35 1.31zm5.31 9.82a1.35 1.35 0 11-1.35-1.35 1.35 1.35 0 011.35 1.35zM191 40.74a1.35 1.35 0 11-1.35-1.35 1.35 1.35 0 011.35 1.35zm11.11 1.6a1.35 1.35 0 11-1.35-1.34 1.35 1.35 0 011.35 1.34zm2.89 9.02a1.35 1.35 0 11-1.32-1.36 1.35 1.35 0 011.32 1.36zm-8.73 2.92a1.35 1.35 0 11-1.35-1.35 1.35 1.35 0 011.35 1.35zm9.56 7.44a1.35 1.35 0 11-1.35-1.35 1.36 1.36 0 011.35 1.35zm5.31-.53a1.35 1.35 0 11-1.35-1.35 1.36 1.36 0 011.35 1.35zm3.18 8.23a1.35 1.35 0 11-1.32-1.35 1.35 1.35 0 011.32 1.35z" fill="#9dbbc9"/><circle cx="223.62" cy="68.65" r="1.35" fill="#9dbbc9"/><path d="M206.89 68.36a1.35 1.35 0 11-1.35-1.36 1.36 1.36 0 011.35 1.36z" fill="#709cb1"/><path d="M216.9 52.71a1.35 1.35 0 11-1.35-1.35 1.35 1.35 0 011.35 1.35z" fill="#9dbbc9"/><circle cx="220.23" cy="55.75" r="1.35" fill="#709cb1"/><path d="M226.27 51.63a1.35 1.35 0 11-1.35-1.35 1.35 1.35 0 011.35 1.35z" fill="#9dbbc9"/><path d="M232.38 60.66a1.35 1.35 0 11-1.38-1.35 1.36 1.36 0 011.38 1.35z" fill="#709cb1"/><path d="M221.76 61.19a1.35 1.35 0 11-1.35-1.35 1.36 1.36 0 011.35 1.35zM205.29 36a1.35 1.35 0 11-1.35-1.35 1.34 1.34 0 011.35 1.35zm6.64-4.29a1.35 1.35 0 11-1.35-1.35 1.34 1.34 0 011.35 1.35z" fill="#9dbbc9"/><circle cx="202.88" cy="29.86" r="1.35" fill="#9dbbc9"/><circle cx="205.01" cy="23.48" r="1.35" fill="#9dbbc9"/><path d="M198.39 29.06a1.35 1.35 0 11-1.39-1.35 1.35 1.35 0 011.39 1.35zm-.26 7.94a1.35 1.35 0 11-1.35-1.34 1.35 1.35 0 011.35 1.34z" fill="#9dbbc9"/><circle cx="190.93" cy="33.04" r="1.35" fill="#9dbbc9"/><path d="M184.58 30.12a1.35 1.35 0 11-1.35-1.35 1.34 1.34 0 011.35 1.35zm8.77-4.49a1.35 1.35 0 11-1.35-1.35 1.36 1.36 0 011.35 1.35zm7.7-8.5a1.35 1.35 0 11-1.35-1.35 1.35 1.35 0 011.35 1.35z" fill="#9dbbc9"/><circle cx="215.1" cy="17.11" r="1.35" fill="#9dbbc9"/><path d="M219.1 26.14a1.35 1.35 0 11-1.35-1.35 1.35 1.35 0 011.35 1.35z" fill="#9dbbc9"/><path d="M232.89 19.14a1.35 1.35 0 11-1.35-1.34 1.35 1.35 0 011.35 1.34zm16.48.86a1.35 1.35 0 11-1.37-1.32 1.34 1.34 0 011.37 1.32z" fill="#709cb1"/><path d="M248.41 12.78a1.35 1.35 0 11-1.35-1.35 1.35 1.35 0 011.35 1.35zm9.37.88a1.35 1.35 0 11-1.35-1.35 1.35 1.35 0 011.35 1.35zM242.73 36a1.35 1.35 0 11-1.35-1.35 1.34 1.34 0 011.35 1.35zM222 34.37a1.35 1.35 0 11-1.33-1.37 1.35 1.35 0 011.33 1.37zm-8.21 9.82a1.35 1.35 0 11-1.35-1.35 1.34 1.34 0 011.35 1.35z" fill="#9dbbc9"/><circle cx="227.31" cy="40.74" r="1.35" fill="#9dbbc9"/><path d="M236.63 55.08a1.35 1.35 0 11-1.35-1.35 1.35 1.35 0 011.35 1.35zm9.02-4.51a1.35 1.35 0 11-1.35-1.35 1.35 1.35 0 011.35 1.35zm-.79 9.02a1.35 1.35 0 11-1.35-1.34 1.35 1.35 0 011.35 1.34z" fill="#9dbbc9"/><circle cx="248.82" cy="69.95" r="1.35" fill="#9dbbc9"/><path d="M240.34 66.23a1.35 1.35 0 11-1.34-1.35 1.34 1.34 0 011.34 1.35z" fill="#9dbbc9"/><circle cx="240.46" cy="80.02" r="1.35" fill="#9dbbc9"/><path d="M251.23 84.82a1.35 1.35 0 11-1.35-1.35 1.35 1.35 0 011.35 1.35z" fill="#709cb1"/><path d="M267.16 86.94a1.35 1.35 0 11-1.35-1.35 1.34 1.34 0 011.35 1.35z" fill="#9dbbc9"/><path d="M274.86 72.87a1.35 1.35 0 11-1.35-1.35 1.34 1.34 0 011.35 1.35z" fill="#709cb1"/><path d="M261.05 70a1.35 1.35 0 11-1.34-1.35 1.34 1.34 0 011.34 1.35zm9.03-13.86a1.35 1.35 0 11-1.35-1.35 1.34 1.34 0 011.35 1.35zm-10.88-13.8a1.35 1.35 0 11-1.35-1.34 1.35 1.35 0 011.35 1.34zm6.1-14.08a1.35 1.35 0 11-1.3-1.35 1.34 1.34 0 011.3 1.35zm2.25-19.53a1.35 1.35 0 11-1.35-1.35 1.34 1.34 0 011.35 1.35zm18.18.15a1.35 1.35 0 11-1.35-1.35 1.36 1.36 0 011.35 1.35z" fill="#9dbbc9"/><path d="M280.68 19a1.35 1.35 0 11-1.35-1.35 1.35 1.35 0 011.35 1.35z" fill="#709cb1"/><path d="M288.91 30.12a1.35 1.35 0 11-1.35-1.35 1.34 1.34 0 011.35 1.35zm9.58-16.2a1.35 1.35 0 11-1.35-1.35 1.34 1.34 0 011.35 1.35zm9.3 2.39a1.35 1.35 0 11-1.35-1.31 1.35 1.35 0 011.35 1.31z" fill="#9dbbc9"/><circle cx="318.92" cy="13.39" r="1.35" fill="#9dbbc9"/><path d="M334.34 16.31A1.35 1.35 0 11333 15a1.34 1.34 0 011.34 1.31z" fill="#709cb1"/><circle cx="336.18" cy="31.98" r="1.35" fill="#9dbbc9"/><path d="M349.55 33.2a1.35 1.35 0 11-1.35-1.35 1.34 1.34 0 011.35 1.35zm2.58-5.73a1.35 1.35 0 11-1.35-1.35 1.35 1.35 0 011.35 1.35zm6.11.79a1.35 1.35 0 11-1.35-1.35 1.35 1.35 0 011.35 1.35z" fill="#9dbbc9"/><circle cx="355.29" cy="38.11" r="1.35" fill="#9dbbc9"/><path d="M364.34 46.87a1.35 1.35 0 11-1.34-1.35 1.34 1.34 0 011.34 1.35z" fill="#709cb1"/><path d="M362.2 33.29a1.35 1.35 0 11-1.35-1.35 1.34 1.34 0 011.35 1.35z" fill="#9dbbc9"/><circle cx="370.69" cy="28" r="1.35" fill="#9dbbc9"/><path d="M369.65 23.22a1.35 1.35 0 11-1.35-1.35 1.35 1.35 0 011.35 1.35zm6.91-3.45a1.35 1.35 0 11-1.35-1.35 1.36 1.36 0 011.35 1.35z" fill="#9dbbc9"/><circle cx="352.11" cy="18.17" r="1.35" fill="#9dbbc9"/><path d="M334.87 40.21a1.35 1.35 0 11-1.35-1.35 1.34 1.34 0 011.35 1.35z" fill="#9dbbc9"/><circle cx="346" cy="45.52" r="1.35" fill="#9dbbc9"/><circle cx="343.88" cy="59.86" r="1.35" fill="#9dbbc9"/><path d="M337.79 65.7a1.35 1.35 0 11-1.35-1.35 1.34 1.34 0 011.35 1.35zm5.84 7.97a1.35 1.35 0 11-1.35-1.35 1.35 1.35 0 011.35 1.35zM329 64.37a1.35 1.35 0 11-1.32-1.37 1.35 1.35 0 011.32 1.37z" fill="#9dbbc9"/><circle cx="337.5" cy="77.38" r="1.35" fill="#9dbbc9"/><path d="M336.46 90.4a1.35 1.35 0 11-1.35-1.35 1.34 1.34 0 011.35 1.35zm-13.54 5.04a1.35 1.35 0 11-1.35-1.35 1.34 1.34 0 011.35 1.35zm-.79 6.11a1.35 1.35 0 11-1.35-1.35 1.36 1.36 0 011.35 1.35zm4.24 8.23a1.35 1.35 0 11-1.35-1.35 1.35 1.35 0 011.35 1.35z" fill="#9dbbc9"/><circle cx="320.47" cy="114.86" r="1.35" fill="#9dbbc9"/><path d="M314.42 108.45a1.35 1.35 0 11-1.34-1.35 1.34 1.34 0 011.34 1.35zm4.78 18.32a1.35 1.35 0 11-1.34-1.35 1.34 1.34 0 011.34 1.35zm-6.63-8.49a1.35 1.35 0 11-1.35-1.35 1.35 1.35 0 011.35 1.35zm-2.43-15.67a1.35 1.35 0 11-1.35-1.35 1.35 1.35 0 011.35 1.35z" fill="#9dbbc9"/><circle cx="302.72" cy="100.24" r="1.35" fill="#9dbbc9"/><path d="M300.09 92.28a1.35 1.35 0 11-1.35-1.35 1.36 1.36 0 011.35 1.35zm-12.48 11.41a1.35 1.35 0 11-1.35-1.35 1.35 1.35 0 011.35 1.35zm-3.72 11.66a1.35 1.35 0 11-1.35-1.34 1.34 1.34 0 011.35 1.34zm6.11 4.25a1.35 1.35 0 11-1.35-1.35 1.35 1.35 0 011.35 1.35z" fill="#9dbbc9"/><path d="M276.72 100.75a1.35 1.35 0 11-1.35-1.35 1.34 1.34 0 011.35 1.35z" fill="#709cb1"/><circle cx="274.57" cy="90.93" r="1.35" fill="#9dbbc9"/><path d="M255 91.46a1.35 1.35 0 11-1.35-1.35 1.36 1.36 0 011.35 1.35z" fill="#9dbbc9"/><circle cx="248.02" cy="103.96" r="1.35" fill="#9dbbc9"/><circle cx="236.6" cy="108.21" r="1.35" fill="#9dbbc9"/><path d="M236.1 101a1.35 1.35 0 11-1.35-1.35 1.36 1.36 0 011.35 1.35z" fill="#709cb1"/><circle cx="226.51" cy="87.74" r="1.35" fill="#9dbbc9"/><circle cx="221.2" cy="82.43" r="1.35" fill="#9dbbc9"/><path d="M224.31 77.21a1.35 1.35 0 11-1.31-1.35 1.35 1.35 0 011.31 1.35zm9.93-1.68a1.35 1.35 0 11-1.35-1.35 1.36 1.36 0 011.35 1.35zm11.68 13.8a1.35 1.35 0 11-1.35-1.33 1.34 1.34 0 011.35 1.33z" fill="#9dbbc9"/><circle cx="291.57" cy="74.2" r="1.35" fill="#9dbbc9"/><path d="M316 74.73a1.35 1.35 0 11-1.35-1.35 1.36 1.36 0 011.35 1.35z" fill="#9dbbc9"/><circle cx="318.12" cy="54.55" r="1.35" fill="#709cb1"/><path d="M299.56 56.94a1.35 1.35 0 11-1.35-1.35 1.36 1.36 0 011.35 1.35z" fill="#9dbbc9"/><circle cx="308.83" cy="39.68" r="1.35" fill="#9dbbc9"/><circle cx="320.24" cy="25.61" r="1.35" fill="#709cb1"/><circle cx="287.32" cy="47.11" r="1.35" fill="#9dbbc9"/><path d="M175 86.44l-9.73-20.54 5.79 4.48zm-8.67-19.2l7.34 15.47-3-12.1z" fill="#9dbbc9"/><path d="M163.89 77.62l6.9-7.32h.07l21.25-2.41zm7.11-6.94l-5.69 6 23.27-8z" fill="#9dbbc9"/><path d="M173.12 85.54l17.45-17.77-.44 7.61zm17-16.73l-14.54 14.8 14.18-8.47z" fill="#9dbbc9"/><path d="M156.6 86.79l7.93-10 10.6 8zm8-9.21L158 86l15.62-1.68zm38.61 3.11l1.52-5.88 11.12 3.7zm1.8-5.37l-1.26 4.87 10.47-1.8z" fill="#9dbbc9"/><path d="M221.32 82.53l-6.86-4.2 8.62-1.33zm-5.72-4l5.49 3.37 1.42-4.43z" fill="#9dbbc9"/><path d="M212 91.08l-.14-.16L202.4 80l19.26 2.09zm-8.66-10.59l8.69 10 8.69-8.13z" fill="#9dbbc9"/><path d="M215.16 106l6-24.47 7.26 22.4zm6.07-23l-5.54 22.53 12.22-1.91z" fill="#9dbbc9"/><path d="M198.21 109.56l14-19.48 3.6 15.88zm13.69-18l-12.31 17.16 15.48-3.17zm-19.3-3.41l-2.94-13.21 13.63 5.24zm-2.39-12.57l2.64 11.88 9.62-7.16zm-21.86 23.48L154 96.32 157.19 86zm-13.8-3l12.76 2.44-9.95-11.64z" fill="#9dbbc9"/><path d="M174.05 113.79l-20.16-6.72.21-11.34zm-19.76-7l18.08 6-17.89-16.2z" fill="#9dbbc9"/><path d="M173.37 114.3l-5.75-15.55v-.07l6.94-15.1zm-5.32-15.53l5 13.52 1.06-26.72z" fill="#9dbbc9"/><path d="M165 122.53l-11.71-16.18 20.44 6.81zm-10.14-15l10.19 14.09 7.6-8.16z" fill="#9dbbc9"/><path d="M164.51 122.34l8.68-9.31 8.88 6.77zm8.72-8.78l-7.65 8.22 15.5-2.24zm25.98-4.08l-13.31-6.24 6.86-16zm-12.8-6.48l12.18 5.71-5.9-20.35z" fill="#9dbbc9"/><path d="M181.69 120l-8.81-6.71 13.63-10.69zm-8.15-6.72l7.92 6 4.34-15.66z" fill="#9dbbc9"/><path d="M186.19 103.57L173.94 84.3 193 87.65zm-11.43-18.72l11.36 17.87L192.44 88zm14.47 40.42l-8.23-5.62 18.79-11.44zm-7.11-5.59l6.93 4.74L198 110z" fill="#9dbbc9"/><path d="M187.28 132.53l1.7-7.89h.17l17.52.84zm2-7.48l-1.48 6.86 16.85-6.12zm31.02-10.95l-5.3-8.73 23 7.63zm-4.42-8l4.64 7.6 15.38-.93z" fill="#9dbbc9"/><path d="M237.21 113.47L227.16 103l9.36 5zm-8-9l7.48 7.82-.51-4.08z" fill="#9dbbc9"/><path d="M240.08 125.66l-3.39-12.9 10.15-3zm-2.9-12.66l3 11.39 6-14zm-31.63 13.13l-7.14-17.43 22.67 5zm-6.16-16.6l6.41 15.63 13.93-11.11z" fill="#9dbbc9"/><path d="M224.78 129.59l-4.87-16.32 21 11.87zm-3.87-15.07l4.28 14.34 14.16-3.86z" fill="#9dbbc9"/><path d="M229.44 137.56L204.62 126l36.19-1.27zm-22.32-11.06l22.17 10.33 10.15-11.46z" fill="#9dbbc9"/><path d="M232 156.3l-11.83-16.69v-.11l4.83-10.88zm-11.37-16.74l10.47 14.77-6.17-24.49zm21.42 25.66l-5.77-8.34 7.69-7.06zm-5.25-8.28l5 7.19 1.66-13.28z" fill="#9dbbc9"/><path d="M235.51 172.2l.86-15.88 5.8 8.37zm1.2-14.7l-.71 13.59 5.69-6.43zm-42.49-14.92l-.07-.1-7-10.57.48.11 34 7.63zM188 132.52l6.43 9.64 24.77-2.65z" fill="#9dbbc9"/><path d="M207.08 150.3L194 142.43l12-16.77zm-12.47-8l12 7.27-1-22.75z" fill="#9dbbc9"/><path d="M214.92 159.71l-8.34-9.8 14.18-10.85zm-7.77-9.71l7.59 8.92 5.31-18.78z" fill="#9dbbc9"/><path d="M223.66 161.81l-10.09-2.52 19.27-4.58zm-7.57-2.5l7.44 1.85 6.75-5.23z" fill="#9dbbc9"/><path d="M220 172.57l3.5-11.59 3.5 6.34-.14.1zm3.65-10.57l-2.88 9.52 5.75-4.31zm-28.31-10l-1.27-10 13.37 8.06zm-.77-9.21l1.12 8.75 10.6-1.67z" fill="#9dbbc9"/><path d="M216.7 159.71l-25.48-1.54 4.17-6.81zm-24.45-2.07l20.75 1.25-17.32-6.79z" fill="#9dbbc9"/><path d="M222.27 172.63l-25.76-3.9-5.41-11.47zm-25.36-4.44l21.64 3.27-26.18-12.91z" fill="#9dbbc9"/><path d="M196.3 176.89l.22-8.71 13.18 4.88zm.6-8.15l-.18 7.62 11.7-3.34z" fill="#9dbbc9"/><path d="M213.2 184.65l-4.42-11.79 12-1.05zm-3.87-11.43l3.95 10.51 6.72-11.45z" fill="#9dbbc9"/><path d="M202 187.82l-5.9-11.61 17.72 8zM197 177l5.24 10.3 10.48-3.18zm11.52-2.49l-1.9-25.15 8.24 9.3zm-1.41-24l1.68 22.26 5.61-14zm-34.88-80.02a1.35 1.35 0 11-1.35-1.35 1.34 1.34 0 011.35 1.35zm-6.23 6.7a1.35 1.35 0 11-1.35-1.35 1.35 1.35 0 011.35 1.35z" fill="#9dbbc9"/><circle cx="157.27" cy="86.65" r="1.35" fill="#9dbbc9"/><path d="M155.61 96.12a1.35 1.35 0 11-1.35-1.35 1.35 1.35 0 011.35 1.35zm-.23 10.61a1.35 1.35 0 11-1.35-1.34 1.34 1.34 0 011.35 1.34zm11.08 15.01a1.35 1.35 0 11-1.35-1.35 1.35 1.35 0 011.35 1.35zm16.62-2.08a1.35 1.35 0 11-1.35-1.35 1.34 1.34 0 011.35 1.35zm7.62 5.08a1.35 1.35 0 11-1.35-1.35 1.34 1.34 0 011.35 1.35z" fill="#9dbbc9"/><circle cx="187.97" cy="131.9" r="1.35" fill="#709cb1"/><path d="M195.78 142.51a1.35 1.35 0 11-1.35-1.34 1.34 1.34 0 011.35 1.34zm.92 9.24a1.35 1.35 0 11-1.35-1.35 1.35 1.35 0 011.35 1.35zm-3.46 6.25a1.35 1.35 0 11-1.35-1.35 1.34 1.34 0 011.35 1.35z" fill="#9dbbc9"/><circle cx="196.97" cy="168.14" r="1.35" fill="#9dbbc9"/><path d="M198.09 176.45a1.35 1.35 0 11-1.35-1.35 1.36 1.36 0 011.35 1.35zm5.54 11.31a1.35 1.35 0 11-1.35-1.35 1.36 1.36 0 011.35 1.35zm11.08-3.46a1.35 1.35 0 11-1.35-1.35 1.36 1.36 0 011.35 1.35z" fill="#9dbbc9"/><path d="M222.09 172.06a1.35 1.35 0 11-1.34-1.35 1.34 1.34 0 011.34 1.35z" fill="#709cb1"/><path d="M227.87 167.68a1.35 1.35 0 11-1.35-1.35 1.36 1.36 0 011.35 1.35zm-2.77-6.01a1.35 1.35 0 11-1.35-1.35 1.35 1.35 0 011.35 1.35zm7.84-6.23a1.35 1.35 0 11-1.34-1.35 1.34 1.34 0 011.34 1.35z" fill="#9dbbc9"/><path d="M230.64 137.44a1.35 1.35 0 11-1.35-1.35 1.36 1.36 0 011.35 1.35z" fill="#709cb1"/><path d="M241.49 125a1.35 1.35 0 11-1.35-1.35 1.35 1.35 0 011.35 1.35z" fill="#9dbbc9"/><circle cx="246.6" cy="110.43" r="1.35" fill="#9dbbc9"/><path d="M238 113a1.35 1.35 0 11-1.35-1.35A1.35 1.35 0 01238 113zm-8.75-9.27a1.35 1.35 0 11-1.35-1.35 1.34 1.34 0 011.35 1.35z" fill="#9dbbc9"/><path d="M213.55 90.58a1.35 1.35 0 11-1.35-1.35 1.35 1.35 0 011.35 1.35z" fill="#709cb1"/><path d="M216.32 78.8a1.35 1.35 0 11-1.32-1.35 1.34 1.34 0 011.32 1.35z" fill="#9dbbc9"/><circle cx="204.82" cy="75.8" r="1.35" fill="#9dbbc9"/><path d="M204.55 80.42a1.35 1.35 0 11-1.35-1.35 1.35 1.35 0 011.35 1.35zm-13.39-5.31a1.35 1.35 0 11-1.35-1.35 1.34 1.34 0 011.35 1.35z" fill="#9dbbc9"/><circle cx="190.28" cy="68.18" r="1.35" fill="#9dbbc9"/><circle cx="174.35" cy="84.57" r="1.35" fill="#9dbbc9"/><path d="M194.39 87.58a1.35 1.35 0 11-1.34-1.35 1.34 1.34 0 011.34 1.35zm-25.16 11.31a1.35 1.35 0 11-1.35-1.35 1.35 1.35 0 011.35 1.35z" fill="#9dbbc9"/><circle cx="173.19" cy="113.2" r="1.35" fill="#9dbbc9"/><circle cx="186.12" cy="103.04" r="1.35" fill="#9dbbc9"/><circle cx="198.82" cy="109.27" r="1.35" fill="#9dbbc9"/><path d="M217 105.81a1.35 1.35 0 11-1.35-1.35 1.35 1.35 0 011.35 1.35z" fill="#9dbbc9"/><circle cx="220.51" cy="113.89" r="1.35" fill="#709cb1"/><path d="M207.32 125.89a1.35 1.35 0 11-1.35-1.35 1.34 1.34 0 011.35 1.35zm19.16 3.47a1.35 1.35 0 11-1.35-1.35 1.35 1.35 0 011.35 1.35zM222.09 140a1.35 1.35 0 11-1.34-1.35 1.34 1.34 0 011.34 1.35z" fill="#9dbbc9"/><circle cx="206.66" cy="150.36" r="1.35" fill="#9dbbc9"/><circle cx="214.74" cy="159.13" r="1.35" fill="#709cb1"/><path d="M210.32 173.22a1.35 1.35 0 11-1.35-1.35 1.35 1.35 0 011.35 1.35z" fill="#9dbbc9"/><circle cx="235.75" cy="171.83" r="1.35" fill="#9dbbc9"/><path d="M245 150.36a1.35 1.35 0 11-1.4-1.36 1.35 1.35 0 011.4 1.36zm-1.9 14.32a1.35 1.35 0 11-1.35-1.35 1.34 1.34 0 011.35 1.35zm-5.1-7.62a1.35 1.35 0 11-1.35-1.35 1.35 1.35 0 011.35 1.35z" fill="#9dbbc9"/><path d="M216.05 106h-.39l-29.72-2.79.06-.21 7-15.61zm-29.75-3l29 2.72-22.21-17.95z" fill="#84aabb"/><path d="M220.91 140.3l-15.14-14.11v-.08l9.92-20.7zm-14.85-14.16l14.52 13.52-5-33.45z" fill="#84aabb"/><path d="M237.05 157.26l-30.5-6.8v-.09l-.76-24.5.21.21zm-30.27-7l29.52 6.58-30.25-30.39zm-33.57-36.89l-.1-.08L154 96.05l39.33-8.66zm-18.69-17.19L173.18 113l19.57-25.26z" fill="#84aabb"/><path d="M185.91 103.81l3.47-29.19 3.79 13zm3.57-28l-3.15 26.47 6.59-14.71z" fill="#84aabb"/><path d="M206.22 126L173 113.23l13.19-10.35.07.08zm-32.79-12.87l32 12.3-19.33-22.22zm28.64 75.35l4.61-39.24 2.36 24.3zm4.58-37L202.48 187l6.31-13.55zm-51.04-55.36a1.35 1.35 0 11-1.35-1.35 1.35 1.35 0 011.35 1.35z" fill="#84aabb"/><path d="M203.63 187.76a1.35 1.35 0 11-1.35-1.35 1.36 1.36 0 011.35 1.35z" fill="#84aabb"/><path d="M191.16 75.11a1.35 1.35 0 11-1.35-1.35 1.34 1.34 0 011.35 1.35z" fill="#709cb1"/><path d="M194.39 87.58a1.35 1.35 0 11-1.34-1.35 1.34 1.34 0 011.34 1.35z" fill="#84aabb"/><circle cx="173.19" cy="113.2" r="1.35" fill="#709cb1"/><circle cx="186.12" cy="103.04" r="1.35" fill="#84aabb"/><path d="M217 105.81a1.35 1.35 0 11-1.35-1.35 1.35 1.35 0 011.35 1.35zm-9.68 20.08a1.35 1.35 0 11-1.35-1.35 1.34 1.34 0 011.35 1.35zM222.09 140a1.35 1.35 0 11-1.34-1.35 1.34 1.34 0 011.34 1.35z" fill="#84aabb"/><circle cx="206.66" cy="150.36" r="1.35" fill="#84aabb"/><path d="M243.1 164.68a1.35 1.35 0 11-1.35-1.35 1.34 1.34 0 011.35 1.35z" fill="#709cb1"/><path d="M238 157.06a1.35 1.35 0 11-1.35-1.35 1.35 1.35 0 011.35 1.35zm-56.55-99.01l-7.84-16.82 6 1.81v.08zm-7.4-16.44l7 15-1.62-13.36zm21.2 22.28l-.64-9.67 5.88-12 .56.21zm0-9.55l.39 5.92 4-15zm-4.04-21.58v-.23l11.71-2.8 8.51 2.05zM202.88 30l-10.41 2.48 17.27-.83z" fill="#84aabb"/><path d="M227.67 41.07l-17.31-9.34 7.42-5.73zM210.8 31.7l16.2 8.71-9.23-14.1zm33.47 28.44l-9.08-5L227 39.55zm-8.9-5.14l7.9 4.33L228.2 41.4z" fill="#84aabb"/><path d="M269.09 56.41l-42.29-16.1 31.11 1.91zm-40.74-15.77l40 15.24-10.56-13.43z" fill="#84aabb"/><path d="M200.6 42.07l10-10.5h.08l17.11 9.23h-.43zm10-10.21l-9.43 9.94 25.69-1.16zm22.64 44.22l-13-14.94.15-.06 15.06-6.19v.2zm-12.63-14.85l12.45 14.28 2.08-20.24z" fill="#84aabb"/><path d="M243.54 59.75L235 55.08l23-12.9zm-8-4.67l8 4.36L257.08 43z" fill="#84aabb"/><path d="M260 70.11l-16.83-10.59L269 56l-.14.22zm-16.15-10.44l16.08 10.12 8.56-13.49z" fill="#84aabb"/><path d="M265.65 86.84l-.08-.26-5.74-16.67h.06l27.84-23.24-.31.55zM260.11 70l5.59 16.26 21.21-38.64zm-11.9 34.25l-22.1-16.67 18.56 1.64v.09zM226.92 87.9l20.91 15.76-3.36-14.22z" fill="#84aabb"/><path d="M236.14 108.25L254 90.94l-5.85 13.11h-.05zM253.24 92l-16.16 15.69 10.85-3.81zM264 87.68l35-31.81-7.2 18.55zM297.47 58l-30.1 27.4 24-11.43zm16.46 17.17l13.72-10.92h.05l9.18 1.39zm13.78-10.67l-12.3 9.79L336 65.76z" fill="#84aabb"/><path d="M321.5 95.6v-.12l-7-21.08 20.93 16zm-6.59-20.54l6.74 20.23 13.22-4.93z" fill="#84aabb"/><path d="M302.65 100.38v-.09l-11.36-26.43.35.24 30.21 21.39zm-10.81-25.84l11 25.56 18.5-4.71zm-3.03 45.32l-6.41-4.46v-.08l3.87-12.15.08.51zm-6.13-4.55l5.81 4-2.27-15.13z" fill="#84aabb"/><path d="M286.27 103.86l-20.85-17.38h.23l49.4-11.91-.3.29zm-20.33-17.25l20.31 16.92 28-28.59z" fill="#84aabb"/><path d="M321.63 95.77l-.16-.27L298 56.75l29.87 7.54v.11zm-23.17-38.64l23.05 38 6-30.65z" fill="#84aabb"/><path d="M342.76 74.11l-15.62-9.94 9.37 1.42zm-14.54-9.53l13.59 8.64-5.44-7.41zm-10.4 62.9l-.13-.17-6.69-9.07.11-.07 14.13-8.69-.15.34zm-6.43-9.17l6.37 8.69 7-16.93z" fill="#84aabb"/><path d="M181.28 58l-.11-.26-7.26-16.54 9 4.65zm-7-16.45l7 15.86L182.75 46zm26.85.76l-11.61-1.5v-.08l1.22-8 .11.1zm-11.43-1.64l11 1.42-9.79-9zm30.7 7.2l-9.79-16.31h.06l7.14-5.56v.14zm-9.58-16.27l9.33 15.55-2.46-20.86z" fill="#3d5f6f"/><path d="M200.7 42.29l10-10.81h.05l16.84 9.3h-.28zm10-10.61l-9.65 10.43L227 40.68z" fill="#3d5f6f"/><path d="M235.16 55.28l-8.1-15h.09l14.49-4.56v.15zm-7.87-14.89l7.84 14.49L241.39 36z" fill="#3d5f6f"/><path d="M269 56.31l-42.2-15.67h.51l30.84 1.6zm-41.17-15.46L268.5 56l-10.43-13.59z" fill="#3d5f6f"/><path d="M203.56 51.31l-.05-.15 24.18-10.67-7.38 7.1zM226.93 41l-22.61 10 15.92-3.54z" fill="#3d5f6f"/><path d="M209.78 61.19l-.06-.09-6.3-9.92 17.05-3.79zm-6.11-9.91l6.12 9.64 10.29-13.28z" fill="#3d5f6f"/><path d="M195.12 62.78l5.77-20.87 2.74 9.34zm5.77-20.29L195.51 62l8-10.78zM189.42 55.6l-6.69-9.7 7-5.32zm-6.48-9.66l6.33 9.16.25-14.19zm-17.58 21.14l10.27-9.29 6.2-.28-.28.16zM175.7 58l-9.11 8.23 14.6-8.48z" fill="#3d5f6f"/><path d="M175.5 58l7.6-12.07 6.37 9.49h-.11zm7.6-11.78l-7.27 11.56 13.38-2.47z" fill="#3d5f6f"/><path d="M195.48 62.7l-6.22-7.33.28-15.17zm-6.06-7.38l5.73 6.74-5.47-20.74z" fill="#3d5f6f"/><path d="M189.31 55.44L183 46h.13l44.85-5.38-.6.23zm-6.07-9.32l6.13 9.13 37.31-14.35z" fill="#3d5f6f"/><path d="M227.48 40.86h-.19l-36.84-7.9 27.34-6.87zm-36.33-8l36 7.72-9.42-14.39zm42.06 42.86l-.12-.14-12.55-14.16h.1l14.6-6.42v.14zm-12.4-14.24l12.28 13.86 2-20.13z" fill="#3d5f6f"/><path d="M266.27 88.12L234.66 55l23.68-13.14.07.41zm-30.64-33l29.72 31.14-7.46-43.46zm55.97 19.47l-.08-.06-23-18.48h.24l29.58 1.07zM269 56.23l22.56 18.1 6.56-17z" fill="#3d5f6f"/><path d="M302.67 99.78v-.06l-11.29-25.48.23.16 30.15 20.81zm-10.92-25.09l11 24.91 18.61-4.46z" fill="#3d5f6f"/><path d="M321.41 95.31l.09-.17 15-30.07-1.08 25.38zm14.94-29.5L321.73 95l13.57-4.7z" fill="#3d5f6f"/><path d="M342.5 73.57l-44.32-16.29v-.15l38.27 8.23zm-43.2-16l42.76 15.72-5.67-7.73zm-33.44 29.94l-24.55-51.94 27.51 20.54zm-24.13-51.42l24 50.82 2.89-30.73z" fill="#3d5f6f"/><path d="M325.2 109.41l-.21-.09-22.34-9.58-4.56-42.91zm-22.41-9.78l22.06 9.46-26.52-51.47zM248 104.19l-3.54-15h.13l8.85 2.14v.09zm-3.32-14.75l3.32 14.24 5.18-12.17z" fill="#3d5f6f"/><path d="M244.74 89.42L192.3 87.8l.47-.14 40.41-12.23zm-51.46-1.74l51.12 1.57-11.27-13.63z" fill="#3d5f6f"/><path d="M206 126.33l-.27-.3-19.93-22.88 7-15.59.07.19zm-20-23.2l19.62 22.49L192.78 88z" fill="#3d5f6f"/><path d="M205.62 126.16l10.22-20.44 32.5-1.88-.33.17zm10.32-20.29l-10 19.92L247.66 104zm-29.89-2.61h-.18L154.34 96l.18-.1 20.25-11.45zm-31.27-7.32l30.94 7.06-11-18.36z" fill="#3d5f6f"/><path d="M174.81 84.88l-8.93-18.27 9.83-8.89v.19zm-8.74-18.23l8.6 17.58.91-26.18zm70.25 90.8l-29.53-7v-.06l-1.08-24.64.15.15zm-29.38-7.11l28.89 6.83-29.94-31z" fill="#3d5f6f"/><path d="M202.34 188.32l-9.63-100.57h.16L207 150.4zM193 89l9.37 97.84 4.42-36.43zm65.1-46.58l-17.6-6.5h.37L351 27.65v.16zM241.22 36l16.9 6.24L349.1 28z" fill="#3d5f6f"/><path d="M354.26 67.84l-3.53-17.23L360 56.8zm-2.94-16.36l3.11 15.18 5.06-9.73z" fill="#9dbbc9"/><path d="M359.78 72.89L354.16 67l-3.33-16 .38-.11zm-5.25-6l4.15 4.33-7-17.83z" fill="#9dbbc9"/><path d="M348.38 80l-1.32-7.93 8.41-5.77zm-.67-7.65l1 5.78 5.17-10z" fill="#9dbbc9"/><path d="M359 73.41v-1.48l-12 .53 13-16.19-.52 15.25h.16zm.55-15.95L347.82 72l11.23-.49zm-43.43 81.03l-.1-.21-8.84-17.88 15.11 13.83zm-7.64-16.36l7.79 15.77 5.38-3.71z" fill="#9dbbc9"/><path d="M324.53 141.32l-8.56-3 1.93-12.19zm-8.11-3.26l7.38 2.58-5.72-13.1zm13.02-3.01l-.08-.15-3.83-7.45 11.73 4.78zm-3.06-6.83l3.25 6.34 6.52-2.36z" fill="#9dbbc9"/><path d="M329.72 134.89l-.37-.15 10.16-27.88.38.11-2.59 11.35zM338.8 110l-7.37 20.23 5.49-12z" fill="#9dbbc9"/><path d="M349.15 110.67l-9.89-3 1.93-8.39zm-9.42-3.28l8.43 2.56-6.78-9.71z" fill="#9dbbc9"/><path d="M346.9 120.54l-6.12-21.86 8.09 11.58zm-5.1-19.71l5 18 1.61-8.45zm3.58 36.87l-9.13-5.53 12.32-4.67zm-8.22-5.44l8 4.83 2.79-8.92z" fill="#9dbbc9"/><path d="M336.9 132.53l-11.52-5.45 11.94-9.22zM326.13 127l10.39 4.91.37-13.22zm16.78 20.07l-21.48-6.62 29.93 2.55zm-16-5.56l16 4.92 6.28-3.05zm41.97 2.87l-21.6-17.07 14.25 4.54v.07zm-19.64-16l18.23 14.4-6.2-10.57z" fill="#9dbbc9"/><path d="M380.62 146.51l-21.48-16.28 19.44 8.14zm-17.36-13.91l16.36 12.4-1.55-6.2z" fill="#9dbbc9"/><path d="M380.39 146l-12.85-2.36 10.92-5.35zm-11.59-2.53l11.05 2-1.66-6.63zm-.61 31.83l-1.81-15.23 4.54-13.18zm-1.41-15.18l1.37 11.46 2.05-21.38z" fill="#9dbbc9"/><path d="M367.91 174.09l2.53-26.33 6.53 15zm2.78-24.76l-2.26 23.46 8.07-10.14z" fill="#9dbbc9"/><path d="M381.63 174.39l-15.76-14.68 11 2.81zm-14.35-13.91l13.32 12.4-4-10z" fill="#9dbbc9"/><path d="M356.64 165.29l3.87-9.68 6.46 4.51zm4.06-9.07l-3.3 8.24 8.79-4.39z" fill="#9dbbc9"/><path d="M360.73 156.31l-7.57-7.14 9.08-.44zm-6.62-6.79l6.37 6 1.27-6.37z" fill="#9dbbc9"/><path d="M357.61 166.19l-8.53-11.68 4.71-5.84zm-7.78-11.66l6.6 9-2.95-13.53z" fill="#9dbbc9"/><path d="M345.55 171.36L339 160.83l10.74-6.74zm-6-10.4l5.82 9.38 3.77-15.34z" fill="#9dbbc9"/><path d="M350.46 182.52l-5.25-11.76 12.18-6.3zm-4.73-11.58l4.7 10.54 6.22-16.19z" fill="#9dbbc9"/><path d="M353.35 190l3.52-25.47 11.6 8.9zm3.82-24.74l-3.25 23.52 14-15.3z" fill="#9dbbc9"/><path d="M372.49 188.67l-4.59-15.44 13.56.21zm-4.05-15l4.17 14 8.16-13.85z" fill="#9dbbc9"/><path d="M362.8 194.58l-9.87-5.37 20.39-1.28zm-8.46-5.06l8.45 4.6 9-5.7z" fill="#9dbbc9"/><path d="M353.57 189.73l-3.38-7.82.17-.09 18.66-9zm-2.86-7.63l3 6.91 13.63-14.94zm-18.9-6.42l-4-10.74 17.68 6.32zm-3.33-10.08l3.57 9.58 12.2-3.94z" fill="#9dbbc9"/><path d="M338.47 186.78l-10.6-21.61.2-.08 11.44-4.49v.3zm-10.05-21.4l9.71 19.81 1-24z" fill="#9dbbc9"/><path d="M326.72 186.43l1.44-20.83 17.12 5.57zm1.8-20.29l-1.34 19.4 17.28-14.22z" fill="#9dbbc9"/><path d="M338.18 185.73l-7.83-11.09 21.09 7.36zm-6.27-9.91l6.51 9.22 11-3.07z" fill="#9dbbc9"/><path d="M326.1 186.3l19.65-16.16-7.86 15.94zm17.9-13.94l-16.2 13.31 9.72-.18zm15.2 29.87l3.44-8h.05l11.17-7.07zm3.75-7.75l-2.53 5.93 10.82-11.17zm18.43 13.33L401 186.88l5.29 5.92-.21.13zM401 187.47L383.64 206l22.06-13.27z" fill="#9dbbc9"/><path d="M397.29 200.28l3.64-13.51 5.37 6zm3.84-12.69L398 199.17l7.72-6.44z" fill="#9dbbc9"/><path d="M331.05 134.76a1.35 1.35 0 11-1.35-1.35 1.35 1.35 0 011.35 1.35zm7.19-16.39a1.35 1.35 0 11-1.35-1.35 1.36 1.36 0 011.35 1.35zm-29.4 2.72a1.35 1.35 0 11-1.35-1.35 1.36 1.36 0 011.35 1.35z" fill="#84aabb"/><circle cx="323.95" cy="140.81" r="1.35" fill="#84aabb"/><path d="M346.58 137.4a1.35 1.35 0 11-1.35-1.35 1.35 1.35 0 011.35 1.35zm26.88 50.76a1.35 1.35 0 11-1.34-1.35 1.34 1.34 0 011.34 1.35z" fill="#84aabb"/><circle cx="376.46" cy="162.53" r="1.35" fill="#84aabb"/><path d="M369.58 173.24a1.35 1.35 0 11-1.35-1.34 1.34 1.34 0 011.35 1.34zm-23-2.3a1.35 1.35 0 11-1.35-1.35 1.34 1.34 0 011.35 1.35zm37.48 35.8a1.35 1.35 0 11-1.35-1.34 1.34 1.34 0 011.35 1.34zM349.75 78.65a1.35 1.35 0 11-1.35-1.35 1.34 1.34 0 011.35 1.35zM360.56 72a1.35 1.35 0 11-1.35-1.35 1.36 1.36 0 011.35 1.35z" fill="#84aabb"/><circle cx="350.98" cy="51.04" r="1.35" fill="#84aabb"/><path d="M348.26 78.88v-.24l2.63-28.11 8.45 21.53h-.09zm2.79-27.33l-2.51 26.88L359.06 72zM318 127.8l-11.08-5.86 3.93-4.25zm-10.69-5.93l9.91 5.25-6.39-9.05zm38.12 15.68h-.22l-15.68-2.66 7.36-16.78.11.25zm-15.56-2.89l15.13 2.58-8.14-18.58z" fill="#84aabb"/><path d="M323.91 141l-6.19-14.72.34.23 11.82 8.2-.09.1zm-5.65-14l5.74 13.6 5.53-5.83z" fill="#84aabb"/><path d="M345.46 137.61l-27.78-11 .26-.12 19-8.32.05.11zm-27.16-11l26.7 10.57-8.18-18.66zm53.86 63.04l-4.25-17.84 9-10.27zm-3.6-17.65l3.51 14.68 3.93-23.16z" fill="#84aabb"/><path d="M372.31 188.42l-.26-.16-27.3-17.48h.49l23 2.31v.08zm-26.59-17.31l26.2 16.78-3.84-14.54z" fill="#84aabb"/><path d="M368.23 173.36h-.07L344.57 171l.63-.17 31.58-8.51zm-22.34-2.47l22.23 2.22 8-10.37zM167.37 66.7a1.35 1.35 0 11-1.37-1.35 1.34 1.34 0 011.37 1.35zm15.35-9.23a1.35 1.35 0 11-1.34-1.35 1.34 1.34 0 011.34 1.35zm14.06 4.61a1.35 1.35 0 11-1.35-1.35 1.36 1.36 0 011.35 1.35zm-12.46-16.03A1.35 1.35 0 11183 44.7a1.35 1.35 0 011.32 1.35zm-9.03-4.78a1.35 1.35 0 11-1.35-1.35 1.34 1.34 0 011.35 1.35zm5.58 1.86a1.35 1.35 0 11-1.35-1.35 1.35 1.35 0 011.35 1.35zm21.24-.79a1.35 1.35 0 11-1.35-1.34 1.35 1.35 0 011.35 1.34zm2.89 9.02a1.35 1.35 0 11-1.32-1.36 1.35 1.35 0 011.32 1.36zm-8.73 2.92a1.35 1.35 0 11-1.35-1.35 1.35 1.35 0 011.35 1.35zm25.49 6.91a1.35 1.35 0 11-1.35-1.35 1.36 1.36 0 011.35 1.35zm-9.83-29.48a1.35 1.35 0 11-1.35-1.35 1.34 1.34 0 011.35 1.35z" fill="#84aabb"/><circle cx="202.88" cy="29.86" r="1.35" fill="#84aabb"/><circle cx="190.93" cy="33.04" r="1.35" fill="#84aabb"/><path d="M219.1 26.14a1.35 1.35 0 11-1.35-1.35 1.35 1.35 0 011.35 1.35z" fill="#84aabb"/><circle cx="227.31" cy="40.74" r="1.35" fill="#84aabb"/><path d="M236.63 55.08a1.35 1.35 0 11-1.35-1.35 1.35 1.35 0 011.35 1.35zm8.23 4.51a1.35 1.35 0 11-1.35-1.34 1.35 1.35 0 011.35 1.34zm22.3 27.35a1.35 1.35 0 11-1.35-1.35 1.34 1.34 0 011.35 1.35zM261.05 70a1.35 1.35 0 11-1.34-1.35 1.34 1.34 0 011.34 1.35zm9.03-13.86a1.35 1.35 0 11-1.35-1.35 1.34 1.34 0 011.35 1.35zm-10.88-13.8a1.35 1.35 0 11-1.35-1.34 1.35 1.35 0 011.35 1.34zm78.59 23.36a1.35 1.35 0 11-1.35-1.35 1.34 1.34 0 011.35 1.35zm5.84 7.97a1.35 1.35 0 11-1.35-1.35 1.35 1.35 0 011.35 1.35zM329 64.37a1.35 1.35 0 11-1.32-1.37 1.35 1.35 0 011.32 1.37zm7.46 26.03a1.35 1.35 0 11-1.35-1.35 1.34 1.34 0 011.35 1.35zm-13.54 5.04a1.35 1.35 0 11-1.35-1.35 1.34 1.34 0 011.35 1.35zm3.45 14.34a1.35 1.35 0 11-1.35-1.35 1.35 1.35 0 011.35 1.35zm-7.17 16.99a1.35 1.35 0 11-1.34-1.35 1.34 1.34 0 011.34 1.35zm-6.63-8.49a1.35 1.35 0 11-1.35-1.35 1.35 1.35 0 011.35 1.35z" fill="#84aabb"/><circle cx="302.72" cy="100.24" r="1.35" fill="#84aabb"/><path d="M287.61 103.69a1.35 1.35 0 11-1.35-1.35 1.35 1.35 0 011.35 1.35zm-3.72 11.66a1.35 1.35 0 11-1.35-1.34 1.34 1.34 0 011.35 1.34zm6.11 4.25a1.35 1.35 0 11-1.35-1.35 1.35 1.35 0 011.35 1.35zm-35-28.14a1.35 1.35 0 11-1.35-1.35 1.36 1.36 0 011.35 1.35z" fill="#84aabb"/><circle cx="248.02" cy="103.96" r="1.35" fill="#84aabb"/><circle cx="236.6" cy="108.21" r="1.35" fill="#84aabb"/><circle cx="226.51" cy="87.74" r="1.35" fill="#84aabb"/><circle cx="221.2" cy="82.43" r="1.35" fill="#84aabb"/><path d="M234.24 75.53a1.35 1.35 0 11-1.35-1.35 1.36 1.36 0 011.35 1.35zm11.68 13.8a1.35 1.35 0 11-1.35-1.33 1.34 1.34 0 011.35 1.33z" fill="#84aabb"/><circle cx="291.57" cy="74.2" r="1.35" fill="#84aabb"/><path d="M316 74.73a1.35 1.35 0 11-1.35-1.35 1.36 1.36 0 011.35 1.35z" fill="#709cb1"/><path d="M299.56 56.94a1.35 1.35 0 11-1.35-1.35 1.36 1.36 0 011.35 1.35z" fill="#84aabb"/><circle cx="287.32" cy="47.11" r="1.35" fill="#84aabb"/><path d="M317.89 127l-6.89-8.76 14.24-8.89zm-6.5-8.7l6.43 8.23 6.95-16.53z" fill="#3d5f6f"/><path d="M345.19 137.51l-27.57-10.78-6.86-8.85.51.29 34 19.12zm-27.42-11l25.91 10.13-32-18z" fill="#3d5f6f"/><path d="M311 118.59l.16-.36 10.5-23.29 3.55 14.76h-.07zm10.59-22.92L311.49 118l13.4-8.38zm50.76 93.1l-.26-.16-27.33-17.83h.48l23.09 2.31zm-26.64-17.66L372 188.24l-3.82-14.88z" fill="#3d5f6f"/><path d="M327.17 127.46a1.35 1.35 0 11-1.35-1.35 1.35 1.35 0 011.35 1.35zm3.88 7.3a1.35 1.35 0 11-1.35-1.35 1.35 1.35 0 011.35 1.35z" fill="#9dbbc9"/><circle cx="336.69" cy="132.12" r="1.35" fill="#9dbbc9"/><path d="M338.24 118.37a1.35 1.35 0 11-1.35-1.35 1.36 1.36 0 011.35 1.35z" fill="#9dbbc9"/><path d="M342.39 99.34A1.35 1.35 0 11341 98a1.35 1.35 0 011.39 1.34z" fill="#709cb1"/><path d="M341 107a1.35 1.35 0 11-1.35-1.35A1.35 1.35 0 01341 107z" fill="#9dbbc9"/><path d="M348.13 119.85a1.35 1.35 0 11-1.35-1.35 1.34 1.34 0 011.35 1.35z" fill="#709cb1"/><path d="M349.84 110.53a1.35 1.35 0 11-1.35-1.35 1.35 1.35 0 011.35 1.35zm-26.56 23.6a1.35 1.35 0 11-1.35-1.35 1.34 1.34 0 011.35 1.35zm-14.44-13.04a1.35 1.35 0 11-1.35-1.35 1.36 1.36 0 011.35 1.35z" fill="#9dbbc9"/><circle cx="316.34" cy="137.55" r="1.35" fill="#9dbbc9"/><circle cx="323.95" cy="140.81" r="1.35" fill="#9dbbc9"/><circle cx="342.75" cy="146.56" r="1.35" fill="#9dbbc9"/><path d="M351.4 143.3a1.35 1.35 0 11-1.35-1.35 1.36 1.36 0 011.35 1.35zm-4.82-5.9a1.35 1.35 0 11-1.35-1.35 1.35 1.35 0 011.35 1.35z" fill="#9dbbc9"/><circle cx="348.03" cy="127.92" r="1.35" fill="#9dbbc9"/><path d="M362.58 131.8a1.35 1.35 0 11-1.35-1.35 1.35 1.35 0 011.35 1.35zm17.24 6.99a1.35 1.35 0 11-1.35-1.35 1.35 1.35 0 011.35 1.35zm1.24 6.99a1.35 1.35 0 11-1.35-1.35 1.34 1.34 0 011.35 1.35z" fill="#9dbbc9"/><path d="M369.26 143.61a1.35 1.35 0 11-1.35-1.35 1.36 1.36 0 011.35 1.35z" fill="#709cb1"/><path d="M372.21 148.58a1.35 1.35 0 11-1.35-1.35 1.36 1.36 0 011.35 1.35zm-4.51 11.49a1.35 1.35 0 11-1.35-1.35 1.34 1.34 0 011.35 1.35zm-5.9-4.19a1.35 1.35 0 11-1.35-1.35 1.35 1.35 0 011.35 1.35z" fill="#9dbbc9"/><circle cx="361.97" cy="149.08" r="1.35" fill="#9dbbc9"/><path d="M355.09 149.24a1.35 1.35 0 11-1.35-1.35 1.35 1.35 0 011.35 1.35z" fill="#9dbbc9"/><path d="M350.62 154.79a1.35 1.35 0 11-1.35-1.35 1.35 1.35 0 011.35 1.35z" fill="#709cb1"/><circle cx="339.33" cy="161" r="1.35" fill="#9dbbc9"/><path d="M330 165.66a1.35 1.35 0 11-1.35-1.35 1.34 1.34 0 011.35 1.35z" fill="#9dbbc9"/><circle cx="327.37" cy="185.85" r="1.35" fill="#9dbbc9"/><circle cx="338.4" cy="185.7" r="1.35" fill="#9dbbc9"/><path d="M352 182.13a1.35 1.35 0 11-1.35-1.35 1.36 1.36 0 011.35 1.35z" fill="#709cb1"/><path d="M355.12 189.27a1.35 1.35 0 11-1.35-1.35 1.34 1.34 0 011.35 1.35z" fill="#9dbbc9"/><circle cx="362.8" cy="194.37" r="1.35" fill="#9dbbc9"/><path d="M373.46 188.16a1.35 1.35 0 11-1.34-1.35 1.34 1.34 0 011.34 1.35zm9.17-14.29a1.35 1.35 0 11-1.35-1.35 1.36 1.36 0 011.35 1.35z" fill="#9dbbc9"/><circle cx="376.46" cy="162.53" r="1.35" fill="#9dbbc9"/><path d="M369.58 173.24a1.35 1.35 0 11-1.35-1.34 1.34 1.34 0 011.35 1.34zm-11.04-8.35a1.35 1.35 0 11-1.35-1.35 1.35 1.35 0 011.35 1.35zm-11.96 6.05a1.35 1.35 0 11-1.35-1.35 1.34 1.34 0 011.35 1.35z" fill="#9dbbc9"/><path d="M332.91 175.29a1.35 1.35 0 11-1.35-1.35 1.34 1.34 0 011.35 1.35z" fill="#709cb1"/><path d="M361 200.92a1.35 1.35 0 11-1.34-1.35 1.34 1.34 0 011.34 1.35zm23.06 5.82a1.35 1.35 0 11-1.35-1.34 1.34 1.34 0 011.35 1.34z" fill="#9dbbc9"/><path d="M399 199.29a1.35 1.35 0 11-1.35-1.35 1.34 1.34 0 011.35 1.35z" fill="#709cb1"/><path d="M407.05 192.92a1.35 1.35 0 11-1.35-1.35 1.34 1.34 0 011.35 1.35zm-4.77-5.36a1.35 1.35 0 11-1.35-1.35 1.35 1.35 0 011.35 1.35zM349.75 78.65a1.35 1.35 0 11-1.35-1.35 1.34 1.34 0 011.35 1.35z" fill="#9dbbc9"/><path d="M360.56 72a1.35 1.35 0 11-1.35-1.35 1.36 1.36 0 011.35 1.35z" fill="#709cb1"/><path d="M361 56.94a1.35 1.35 0 11-1.34-1.35 1.34 1.34 0 011.34 1.35z" fill="#9dbbc9"/><circle cx="350.98" cy="51.04" r="1.35" fill="#9dbbc9"/><circle cx="354.55" cy="67.04" r="1.35" fill="#9dbbc9"/><path d="M348.75 72.47a1.35 1.35 0 11-1.34-1.35 1.34 1.34 0 011.34 1.35z" fill="#9dbbc9"/><path d="M319.2 126.77a1.35 1.35 0 11-1.34-1.35 1.34 1.34 0 011.34 1.35zm-6.63-8.49a1.35 1.35 0 11-1.35-1.35 1.35 1.35 0 011.35 1.35zm34.01 19.12a1.35 1.35 0 11-1.35-1.35 1.35 1.35 0 011.35 1.35zm26.88 50.76a1.35 1.35 0 11-1.34-1.35 1.34 1.34 0 011.34 1.35zm-3.04-14.92a2.19 2.19 0 11-2.19-2.18 2.19 2.19 0 012.19 2.18zm-23.84-2.3a1.35 1.35 0 11-1.35-1.35 1.34 1.34 0 011.35 1.35zm5.55-143.47a1.35 1.35 0 11-1.35-1.35 1.35 1.35 0 011.35 1.35zM155.61 96.12a1.35 1.35 0 11-1.35-1.35 1.35 1.35 0 011.35 1.35zM204 187.76a1.72 1.72 0 11-1.72-1.72 1.72 1.72 0 011.72 1.72zm-9.61-100.18a1.35 1.35 0 11-1.34-1.35 1.34 1.34 0 011.34 1.35z" fill="#3d5f6f"/><circle cx="186.12" cy="103.04" r="1.35" fill="#3d5f6f"/><path d="M217 105.81a1.35 1.35 0 11-1.35-1.35 1.35 1.35 0 011.35 1.35zm-9.13 20.08A1.9 1.9 0 11206 124a1.9 1.9 0 011.87 1.89zM238 157.06a1.35 1.35 0 11-1.35-1.35 1.35 1.35 0 011.35 1.35zM168.1 66.7a2.08 2.08 0 11-2.1-2.07 2.08 2.08 0 012.1 2.07zm15.12-9.23a1.85 1.85 0 11-1.84-1.85 1.84 1.84 0 011.84 1.85zm13.56 4.61a1.35 1.35 0 11-1.35-1.35 1.36 1.36 0 011.35 1.35zm-12.46-16.03A1.35 1.35 0 11183 44.7a1.35 1.35 0 011.32 1.35zm17.79-3.71a1.35 1.35 0 11-1.35-1.34 1.35 1.35 0 011.35 1.34zm3.48 9.02a1.91 1.91 0 11-1.91-1.9 1.91 1.91 0 011.91 1.9zm16.56 9.83a1.74 1.74 0 11-1.74-1.74 1.74 1.74 0 011.74 1.74zm-10.22-29.48a1.35 1.35 0 11-1.35-1.35 1.34 1.34 0 011.35 1.35z" fill="#3d5f6f"/><circle cx="190.93" cy="33.04" r="1.35" fill="#3d5f6f"/><path d="M219.1 26.14a1.35 1.35 0 11-1.35-1.35 1.35 1.35 0 011.35 1.35z" fill="#3d5f6f"/><circle cx="227.31" cy="40.74" r="2.39" fill="#3d5f6f"/><path d="M267.16 86.94a1.35 1.35 0 11-1.35-1.35 1.34 1.34 0 011.35 1.35zm-7.96-44.6a1.35 1.35 0 11-1.35-1.34 1.35 1.35 0 011.35 1.34zm77.26 48.06a1.35 1.35 0 11-1.35-1.35 1.34 1.34 0 011.35 1.35zm-13.54 5.04a1.35 1.35 0 11-1.35-1.35 1.34 1.34 0 011.35 1.35zm-18.4 4.8a1.8 1.8 0 11-1.8-1.8 1.8 1.8 0 011.8 1.8zm-83.35-52.77a.94.94 0 11-.94-.93.94.94 0 01.94.93zm-30.84 7.79a.94.94 0 11-.93-.93.94.94 0 01.93.93zm-14.24-13.9a2 2 0 11-2-2 2 2 0 012 2zm.65 16.64a.94.94 0 11-.94-.94.94.94 0 01.94.94zm13.8-17.26a.94.94 0 11-.93-.94.94.94 0 01.93.94z" fill="#3d5f6f"/><circle cx="209.92" cy="61.19" r=".94" fill="#3d5f6f"/><path d="M236.21 55.08a.94.94 0 11-.93-.94.94.94 0 01.93.94zm-2.09 20.52a.94.94 0 11-.94-.93.94.94 0 01.94.93zm-58.59 8.93a.94.94 0 11-.94-.94.94.94 0 01.94.94zm69.98 4.8a.94.94 0 11-.94-.93.94.94 0 01.94.93z" fill="#3d5f6f"/><circle cx="206.73" cy="150.59" r=".94" fill="#3d5f6f"/><path d="M242.12 36a.74.74 0 11-.74-.73.74.74 0 01.74.73zm27.35 20.14a.74.74 0 11-.74-.73.74.74 0 01.74.73zm29.47.8a.74.74 0 11-.73-.74.74.74 0 01.73.74zm38.24 8.76a.74.74 0 11-.74-.74.74.74 0 01.74.74zm5.82 7.97a.74.74 0 11-.74-.74.74.74 0 01.74.74zm-17.11 35.84a.74.74 0 11-.73-.73.74.74 0 01.73.73zm-33.45-35.05a.74.74 0 11-.74-.73.74.74 0 01.74.73zM254.4 91.45a.74.74 0 11-.74-.74.74.74 0 01.74.74zM248.76 104a.74.74 0 11-.74-.74.74.74 0 01.74.74z" fill="#3d5f6f"/></svg>