<svg width="94" height="18" fill="none" xmlns="http://www.w3.org/2000/svg"><path d="M.72.2h4.704l7.584 9.24c.224.256.424.552.6.888.176.336.328.664.456.984l.024-.024a7.306 7.306 0 01-.288-1.032 6.462 6.462 0 01-.096-1.056v-9h4.512V17h-4.728l-7.56-9.216a4.54 4.54 0 01-.6-.888 10.648 10.648 0 01-.456-.984l-.048.024c.128.32.224.672.288 1.056.08.368.12.712.12 1.032V17H.72V.2zm19.897 0h15.96v4.104H25.13v2.76h10.392v3.384H25.13v2.472h11.448V17h-15.96V.2zM38.945 17V.2h10.872c1.92 0 3.424.352 4.512 1.056 1.088.704 1.632 1.792 1.632 3.264 0 .528-.064.968-.192 1.32-.128.352-.296.64-.504.864-.208.224-.448.4-.72.528-.256.128-.512.24-.768.336-.32.144-.688.264-1.104.36-.4.08-.776.136-1.128.168v.048a7.196 7.196 0 011.176 0c.432.032.808.12 1.128.264.24.096.496.232.768.408.272.16.52.424.744.792.224.368.408.864.552 1.488.144.608.216 1.392.216 2.352V17H51.64v-3.528c0-.64-.224-1.104-.672-1.392-.432-.304-.968-.456-1.608-.456l-5.88.024V17h-4.536zM48.4 7.952c.384 0 .784-.032 1.2-.096.432-.08.824-.192 1.176-.336.368-.16.672-.368.912-.624s.36-.576.36-.96c0-.416-.08-.76-.24-1.032a1.634 1.634 0 00-.6-.672 2.564 2.564 0 00-.888-.336 5.77 5.77 0 00-1.08-.096h-5.76v4.152h4.92zM58.538 17V.2h4.512v6.648c0 .288-.04.6-.12.936a6.8 6.8 0 01-.24.888l.047.024a5.52 5.52 0 01.384-.84c.176-.288.36-.544.552-.768L69.626.2h5.903l-7.103 8.208L75.65 17h-5.977l-6.096-7.296-.527 3.816V17h-4.512z" fill="#fff"/><path d="M84.55 17.168c-1.248 0-2.424-.176-3.528-.528a8.384 8.384 0 01-2.904-1.584c-.816-.704-1.464-1.592-1.944-2.664s-.72-2.336-.72-3.792.24-2.72.72-3.792c.48-1.088 1.128-1.984 1.944-2.688A7.89 7.89 0 0181.022.536c1.104-.352 2.28-.52 3.528-.504 1.248.016 2.424.2 3.528.552a7.665 7.665 0 012.88 1.584c.816.704 1.464 1.592 1.944 2.664.48 1.056.72 2.312.72 3.768s-.24 2.72-.72 3.792c-.48 1.072-1.128 1.96-1.944 2.664-.816.704-1.776 1.232-2.88 1.584-1.104.352-2.28.528-3.528.528zm0-13.056c-.576 0-1.136.104-1.68.312a4.375 4.375 0 00-1.464.864 4.207 4.207 0 00-1.032 1.416c-.256.56-.384 1.192-.384 1.896 0 .688.128 1.312.384 1.872s.592 1.032 1.008 1.416c.432.384.92.68 1.464.888a4.86 4.86 0 001.704.312c.608 0 1.184-.104 1.728-.312a4.382 4.382 0 001.464-.888 4.09 4.09 0 00.984-1.416A4.45 4.45 0 0089.11 8.6c0-.704-.128-1.328-.384-1.872a4.207 4.207 0 00-1.032-1.416 4.382 4.382 0 00-1.464-.888 4.666 4.666 0 00-1.68-.312z" fill="#fff"/></svg>