<svg width="139" height="38" fill="none" xmlns="http://www.w3.org/2000/svg"><path d="M24.435 37.128v-26.4H.483v26.4h6.864V17.304h10.224v19.824h6.864z" fill="#0F051D"/><path d="M24.435 37.128v-26.4H.483v26.4h6.864V17.304h10.224v19.824h6.864z" fill="#fff" fill-opacity=".5"/><path d="M41.278 10.152c-7.776 0-13.632 5.952-13.632 13.824 0 7.824 5.808 13.776 13.824 13.776 6.432 0 12.144-3.84 13.248-10.32h-7.104c-.624 2.88-3.168 4.464-6.096 4.464-3.84 0-6.624-2.592-6.864-6.672h20.112c.096-.816.192-1.872 0-3.264-.816-7.2-6.672-11.808-13.488-11.808zm.096 5.664c2.784 0 5.568 1.584 6.192 4.848H35.134c.816-2.976 3.168-4.848 6.24-4.848z" fill="#0F051D"/><path d="M41.278 10.152c-7.776 0-13.632 5.952-13.632 13.824 0 7.824 5.808 13.776 13.824 13.776 6.432 0 12.144-3.84 13.248-10.32h-7.104c-.624 2.88-3.168 4.464-6.096 4.464-3.84 0-6.624-2.592-6.864-6.672h20.112c.096-.816.192-1.872 0-3.264-.816-7.2-6.672-11.808-13.488-11.808zm.096 5.664c2.784 0 5.568 1.584 6.192 4.848H35.134c.816-2.976 3.168-4.848 6.24-4.848z" fill="#fff" fill-opacity=".5"/><path d="M74.037 17.304v-6.576H57.909v26.4h6.864V17.304h9.264z" fill="#0F051D"/><path d="M74.037 17.304v-6.576H57.909v26.4h6.864V17.304h9.264z" fill="#fff" fill-opacity=".5"/><path d="M83.15 21.192V.168h-6.864v36.96h6.864V26.136l9.264 10.992h8.688l-11.52-13.68 10.608-12.72h-8.592L83.15 21.192z" fill="#0F051D"/><path d="M83.15 21.192V.168h-6.864v36.96h6.864V26.136l9.264 10.992h8.688l-11.52-13.68 10.608-12.72h-8.592L83.15 21.192z" fill="#fff" fill-opacity=".5"/><path d="M113.943 10.152c-7.584 0-13.776 5.856-13.776 13.776s6.096 13.824 13.776 13.824 13.728-5.856 13.728-13.776c0-7.968-6.144-13.824-13.728-13.824zm0 6.528c3.84 0 6.816 2.976 6.816 7.296s-2.976 7.248-6.816 7.248c-3.792 0-6.816-2.928-6.816-7.248 0-4.368 2.976-7.296 6.816-7.296z" fill="#0F051D"/><path d="M113.943 10.152c-7.584 0-13.776 5.856-13.776 13.776s6.096 13.824 13.776 13.824 13.728-5.856 13.728-13.776c0-7.968-6.144-13.824-13.728-13.824zm0 6.528c3.84 0 6.816 2.976 6.816 7.296s-2.976 7.248-6.816 7.248c-3.792 0-6.816-2.928-6.816-7.248 0-4.368 2.976-7.296 6.816-7.296z" fill="#fff" fill-opacity=".5"/><path d="M134.245 29.592c-2.448 0-4.272 1.728-4.272 4.08 0 2.352 1.824 4.08 4.272 4.08 2.448 0 4.272-1.728 4.272-4.08 0-2.352-1.824-4.08-4.272-4.08z" fill="#0F051D"/><path d="M134.245 29.592c-2.448 0-4.272 1.728-4.272 4.08 0 2.352 1.824 4.08 4.272 4.08 2.448 0 4.272-1.728 4.272-4.08 0-2.352-1.824-4.08-4.272-4.08z" fill="#fff" fill-opacity=".5"/></svg>